<svg width="467" height="69" viewBox="0 0 467 69" fill="none" xmlns="http://www.w3.org/2000/svg">
<path d="M24.4546 55.982C24.2626 55.982 24.0706 55.918 23.8146 55.854C22.5986 55.406 21.8946 53.678 21.8946 51.182L21.9586 50.094C22.8546 40.11 31.1746 19.374 32.3266 16.494C29.5746 20.974 13.7026 49.07 4.61462 49.07C3.59063 49.07 2.63063 48.686 1.79863 47.918C0.774625 46.958 0.390625 45.038 0.390625 42.606C0.390625 31.022 9.73463 6.446 11.9106 4.718C12.2946 4.078 12.7426 3.886 13.1906 3.886C13.7026 3.886 14.0866 4.27 14.0866 4.91C14.0866 5.358 13.8306 5.934 13.2546 6.574C10.8866 8.814 1.73463 32.43 1.73463 42.862C1.73463 45.614 2.31063 47.406 3.84663 47.79C4.03863 47.854 4.29463 47.854 4.55063 47.854C14.4706 47.854 35.2706 8.302 39.6866 1.134C39.8146 0.878002 40.0066 0.813999 40.3266 0.813999C40.9026 0.813999 41.6706 1.262 41.6706 1.774L41.6066 2.03C35.0146 14.318 25.6706 36.974 23.8146 50.222C23.6866 50.926 23.6226 51.566 23.6226 52.206C23.6226 53.55 23.9426 54.51 24.5826 54.51C25.0306 54.51 25.2866 54.83 25.2866 55.214C25.2866 55.598 25.0306 55.982 24.4546 55.982ZM30.7041 43.886C30.2561 43.886 29.8081 43.694 29.8081 43.182V42.99C30.8321 38.702 32.8801 33.134 35.1841 29.486C35.3761 29.23 35.5681 29.102 35.8881 29.102C36.4641 29.102 37.2321 29.742 37.2321 30.254C37.2321 30.382 37.1681 30.446 37.1041 30.574C34.8001 33.262 32.4321 39.15 31.1521 42.606C32.8801 39.278 37.8081 31.278 40.6241 31.278L41.0081 31.342C41.9041 31.662 42.1601 32.558 42.1601 33.646C42.1601 35.502 41.4561 37.998 41.4561 39.662C41.4561 40.558 41.6481 41.198 42.4161 41.326H42.5441C44.8481 41.326 49.0721 34.734 50.3521 33.134L50.5441 33.006C50.6081 33.006 50.7361 33.134 50.7361 33.198C50.7361 33.262 50.7361 33.326 50.6721 33.39C49.2641 35.31 45.2961 41.966 42.4801 41.966H42.4161C40.1761 41.966 39.7281 40.11 39.7281 38.126C39.7281 36.59 39.9841 34.926 39.9841 33.902C39.9841 33.518 39.9841 33.198 39.7921 33.07L39.6001 33.006C38.1281 33.006 33.1361 40.366 31.4081 43.63C31.2801 43.822 31.0241 43.886 30.7041 43.886ZM64.3041 40.814C65.5841 40.814 70.5121 34.222 70.7041 34.03C70.8321 33.71 71.0241 33.07 71.0241 32.494C71.0241 31.854 70.8321 31.278 70.3841 31.214L70.1281 31.15C67.5681 31.15 63.9841 38.062 63.9841 40.302V40.43C64.0481 40.686 64.1121 40.814 64.3041 40.814ZM69.4881 44.718H69.2961C68.4641 44.718 68.1441 44.078 68.1441 43.118C68.1441 40.75 70.0001 36.59 70.3841 35.758C69.3601 37.166 65.9681 41.71 63.9201 41.71L63.5361 41.646C62.7681 41.454 62.4481 40.75 62.4481 39.79C62.4481 36.526 66.4161 30.126 69.6161 30.126L70.0001 30.19C70.9601 30.382 71.6001 31.086 71.9201 31.918L72.0481 32.302C72.3681 31.918 72.6241 31.662 72.8801 31.534C73.1361 31.342 73.3281 31.278 73.5201 31.278C73.8401 31.278 74.0321 31.47 74.0321 31.79C74.0321 31.982 73.9681 32.238 73.7761 32.494C72.7521 34.222 69.4881 40.942 69.4881 43.182V43.502C69.5521 43.566 69.5521 43.566 69.6161 43.566C70.6401 43.566 78.7041 35.758 81.7761 33.134L82.0321 33.006C82.1601 33.006 82.3521 33.198 82.3521 33.326C82.3521 33.39 82.2881 33.454 82.2241 33.518C79.7921 35.502 70.9601 44.526 69.4881 44.718ZM82.3416 44.526H82.1496C80.4216 44.462 79.3336 43.438 78.9496 41.902C78.8216 41.454 78.7576 40.942 78.7576 40.494C78.7576 36.206 82.6616 30.318 86.4376 30.19C88.0376 30.19 89.2536 31.022 89.2536 32.43C89.2536 33.006 89.0616 33.71 88.4856 34.542C88.2296 34.798 88.0376 34.862 87.8456 34.862C87.5896 34.862 87.4616 34.67 87.4616 34.478C87.4616 34.35 87.5256 34.222 87.5896 34.094C87.8456 33.71 88.2936 32.686 88.2936 31.918C88.2936 31.47 88.1656 31.086 87.7816 30.958C87.5256 30.894 87.3336 30.83 87.0776 30.83C84.0056 30.83 80.4216 37.294 80.4216 41.134C80.4216 42.67 80.9336 43.758 82.2776 43.886H82.5976C86.5656 43.886 93.2856 36.334 96.9976 33.134L97.2536 33.006C97.4456 33.006 97.5096 33.134 97.5096 33.262C97.5096 33.39 97.5096 33.518 97.3816 33.582C92.8376 37.55 86.9496 44.526 82.3416 44.526ZM97.5916 44.526H97.3996C95.6716 44.462 94.5836 43.438 94.1996 41.902C94.0716 41.454 94.0076 40.942 94.0076 40.494C94.0076 36.206 97.9116 30.318 101.688 30.19C103.288 30.19 104.504 31.022 104.504 32.43C104.504 33.006 104.312 33.71 103.736 34.542C103.48 34.798 103.288 34.862 103.096 34.862C102.84 34.862 102.712 34.67 102.712 34.478C102.712 34.35 102.776 34.222 102.84 34.094C103.096 33.71 103.544 32.686 103.544 31.918C103.544 31.47 103.416 31.086 103.032 30.958C102.776 30.894 102.584 30.83 102.328 30.83C99.2556 30.83 95.6716 37.294 95.6716 41.134C95.6716 42.67 96.1836 43.758 97.5276 43.886H97.8476C101.816 43.886 108.536 36.334 112.248 33.134L112.504 33.006C112.696 33.006 112.76 33.134 112.76 33.262C112.76 33.39 112.76 33.518 112.632 33.582C108.088 37.55 102.2 44.526 97.5916 44.526ZM121.866 44.014C121.482 44.014 121.098 43.694 121.098 43.246L121.162 42.99C123.338 35.886 127.37 30.894 127.37 29.294C127.37 28.974 127.242 28.782 126.986 28.718L126.41 28.654C123.914 28.654 118.538 31.214 116.618 31.854C117.258 32.494 117.514 33.39 117.514 34.414C117.514 35.118 117.386 35.886 117.13 36.654C116.234 39.79 113.738 42.862 111.882 42.862L111.498 42.798C110.346 42.478 109.898 41.454 109.898 40.11C109.898 37.294 111.946 33.07 113.162 31.79C113.29 31.662 113.482 31.598 113.674 31.598C114.122 31.598 114.442 31.918 114.442 32.302C114.442 32.494 114.378 32.686 114.25 32.814C112.97 34.158 110.986 38.51 110.986 40.878C110.986 41.518 111.178 42.03 111.562 42.222L111.754 42.286C112.97 42.286 116.362 37.678 116.362 34.478C116.362 33.518 116.042 32.75 115.274 32.174C115.146 32.11 115.082 31.918 115.082 31.79C115.082 31.47 115.274 31.086 115.786 31.086H115.978C117.13 31.086 123.146 27.886 126.41 27.886C127.114 27.886 127.69 28.014 128.074 28.398C128.33 28.718 128.458 29.102 128.458 29.55C128.458 32.11 125.322 36.974 124.682 38.318C127.754 34.478 133.194 28.846 137.162 27.502C137.546 27.374 137.93 27.31 138.314 27.31C139.21 27.31 139.914 27.758 139.914 28.654C139.914 29.038 139.786 29.422 139.594 29.87C138.378 32.686 136.202 38.062 135.306 41.262C138.314 37.166 142.218 32.046 144.778 32.046L145.418 32.11C146.122 32.366 146.442 33.006 146.442 33.774C146.442 36.142 144.138 40.11 144.138 42.286V42.606C144.138 42.734 144.266 42.798 144.394 42.798C144.586 42.798 144.906 42.67 145.098 42.606H145.162C145.418 42.606 145.61 42.862 145.61 43.118C145.61 43.246 145.61 43.31 145.482 43.374C145.29 43.502 145.098 43.566 144.842 43.566C144.074 43.566 143.242 42.862 143.178 42.03V41.71C143.178 39.598 145.162 34.798 145.162 33.262C145.162 32.942 145.098 32.75 144.906 32.686H144.778C141.962 32.686 135.69 41.902 135.37 42.286C135.178 42.542 134.986 42.606 134.73 42.606C134.346 42.606 134.026 42.286 134.026 41.838V41.71C134.858 37.422 136.586 33.07 138.25 29.294L138.378 28.718C138.378 28.334 138.122 28.206 137.802 28.206L137.418 28.27C132.106 29.998 124.426 38.766 122.57 43.502C122.442 43.822 122.186 44.014 121.866 44.014ZM140.155 66.094C139.835 66.094 139.451 65.838 139.451 65.39V65.326C139.707 59.566 150.139 32.302 151.739 29.678C151.867 29.422 152.123 29.294 152.315 29.294C152.571 29.294 152.763 29.486 152.763 29.806L152.699 30.126C150.331 35.31 147.195 44.846 146.491 46.702C148.859 41.774 154.171 29.998 160.059 29.998L160.827 30.062C162.427 30.318 163.515 31.534 163.515 33.07L163.387 33.902C164.795 33.582 167.227 33.198 169.659 32.942C169.915 32.942 170.043 33.134 170.043 33.262C170.043 33.39 169.979 33.582 169.723 33.582C167.099 33.774 165.499 34.158 163.259 34.67C161.851 38.702 157.563 42.158 155.067 42.158C154.299 42.158 153.659 41.838 153.403 41.07L153.275 40.494C153.275 37.934 159.099 35.118 161.531 34.414C161.659 34.03 161.723 33.518 161.723 33.006C161.723 32.238 161.531 31.47 160.699 31.214C160.379 31.086 160.059 31.086 159.739 31.086C155.515 31.086 151.163 39.086 147.387 47.47C144.059 54.83 141.691 63.086 140.859 65.582C140.731 65.966 140.475 66.094 140.155 66.094ZM154.811 41.262C156.539 41.262 160.443 37.102 161.147 35.438C159.675 35.694 154.043 38.574 154.043 40.43V40.686C154.171 41.134 154.427 41.262 154.811 41.262ZM168.367 40.814C169.647 40.814 174.575 34.222 174.767 34.03C174.895 33.71 175.087 33.07 175.087 32.494C175.087 31.854 174.895 31.278 174.447 31.214L174.191 31.15C171.631 31.15 168.047 38.062 168.047 40.302V40.43C168.111 40.686 168.175 40.814 168.367 40.814ZM173.551 44.718H173.359C172.527 44.718 172.207 44.078 172.207 43.118C172.207 40.75 174.063 36.59 174.447 35.758C173.423 37.166 170.031 41.71 167.983 41.71L167.599 41.646C166.831 41.454 166.511 40.75 166.511 39.79C166.511 36.526 170.479 30.126 173.679 30.126L174.063 30.19C175.023 30.382 175.663 31.086 175.983 31.918L176.111 32.302C176.431 31.918 176.687 31.662 176.943 31.534C177.199 31.342 177.391 31.278 177.583 31.278C177.903 31.278 178.095 31.47 178.095 31.79C178.095 31.982 178.031 32.238 177.839 32.494C176.815 34.222 173.551 40.942 173.551 43.182V43.502C173.615 43.566 173.615 43.566 173.679 43.566C174.703 43.566 182.767 35.758 185.839 33.134L186.095 33.006C186.223 33.006 186.415 33.198 186.415 33.326C186.415 33.39 186.351 33.454 186.287 33.518C183.855 35.502 175.023 44.526 173.551 44.718ZM184.932 41.07C185.956 41.07 189.54 38.382 192.676 34.222C192.804 33.326 192.996 32.302 192.996 31.534C192.996 31.022 192.932 30.574 192.676 30.446C192.484 30.318 192.292 30.254 192.036 30.254C189.348 30.254 184.42 37.422 184.42 40.11C184.42 40.558 184.484 40.814 184.74 41.006L184.932 41.07ZM176.1 68.334C175.78 68.334 175.46 68.27 175.14 68.078C174.5 67.694 174.244 67.118 174.244 66.35C174.244 60.974 187.94 46.83 189.86 45.166C191.972 40.43 193.06 37.166 194.148 34.094C192.42 36.398 188.132 41.966 185.252 41.966H185.124C183.524 41.902 182.884 41.006 182.884 39.662C182.884 36.142 187.428 29.678 191.012 29.102L191.652 29.038C193.316 29.038 194.404 30.126 194.404 31.726V32.046C194.724 31.79 194.596 31.726 195.172 30.958C195.876 29.87 196.452 29.486 196.9 29.486C197.476 29.486 197.796 30.19 197.796 30.702L197.732 31.086C197.54 31.598 197.348 31.278 196.9 32.494C195.94 35.182 194.148 38.766 192.356 42.99C196.004 39.086 201.252 33.71 203.3 33.006L203.492 32.942C203.684 32.942 203.876 33.134 203.876 33.326C203.876 33.454 203.812 33.582 203.62 33.646C200.804 35.054 191.972 44.718 191.396 45.422C189.604 49.454 181.22 68.334 176.1 68.334ZM176.036 67.502C179.3 67.502 187.62 49.774 188.452 48.11C186.596 49.39 175.14 62.638 175.14 66.414C175.14 66.606 175.14 66.862 175.268 66.99C175.46 67.31 175.716 67.502 176.036 67.502ZM199.618 44.91C199.17 44.91 198.786 44.59 198.786 44.206L198.85 43.95C200.066 40.238 203.074 32.942 204.994 29.806C205.122 29.55 205.378 29.422 205.634 29.422C206.018 29.422 206.402 29.742 206.402 30.19L206.274 30.574C205.058 32.622 202.754 38.062 201.602 41.006C202.818 39.342 208.962 30.254 212.034 30.254C212.354 30.254 212.61 30.382 212.866 30.574C213.186 30.894 213.314 31.278 213.314 31.854C213.314 34.03 211.01 37.934 211.01 40.366C211.01 41.198 211.266 41.838 211.906 42.222C212.162 42.35 212.482 42.478 212.802 42.478C213.826 42.478 215.298 41.774 216.77 40.686V40.494C216.77 36.462 221.122 30.83 223.618 30.83L224.066 30.894C224.45 31.086 224.77 31.406 224.898 31.982V32.238C224.898 34.03 221.57 37.998 218.05 40.75V40.942C218.05 42.03 218.498 42.862 219.842 43.118L220.418 43.182C224.386 43.182 229.442 35.886 231.426 33.198C231.554 33.07 231.682 33.006 231.81 33.006C231.938 33.006 232.066 33.134 232.066 33.262C232.066 33.326 232.066 33.454 232.002 33.518C230.402 36.142 224.77 44.078 220.546 44.078H220.482C218.306 44.014 217.218 42.99 216.898 41.582C215.298 42.67 213.634 43.374 212.354 43.374C211.906 43.374 211.458 43.31 211.074 43.054C209.922 42.414 209.538 41.262 209.538 39.918C209.538 36.654 212.034 32.366 212.034 31.47L211.97 31.342C211.906 31.278 211.842 31.278 211.714 31.278C209.73 31.278 200.962 43.374 200.194 44.59C200.002 44.782 199.81 44.91 199.618 44.91ZM218.178 39.662C221.186 37.23 223.938 33.966 223.938 32.558V32.43C223.938 32.366 223.81 32.302 223.618 32.238L223.234 32.174C222.722 32.174 221.186 33.774 220.674 34.414C219.97 35.374 218.626 37.678 218.178 39.662ZM228.575 43.822C228.191 43.822 227.807 43.694 227.807 43.31L227.871 43.054C229.215 38.958 231.199 32.43 233.567 28.846C233.759 28.59 234.015 28.526 234.399 28.526C234.975 28.526 235.679 28.846 235.679 29.486C235.679 29.678 235.551 29.934 235.359 30.19C235.039 30.574 234.527 31.086 234.143 31.854C232.927 34.158 231.647 36.846 231.007 38.83C232.671 36.782 239.519 27.566 243.487 27.566C243.999 27.566 244.447 27.694 244.831 28.014C245.215 28.27 245.343 28.782 245.343 29.422C245.343 32.302 242.463 37.998 242.079 40.686C243.871 38.638 248.607 31.982 251.935 31.982L252.639 32.11C253.599 32.43 253.855 33.326 253.855 34.414C253.855 35.694 253.535 37.23 253.535 38.446C253.535 39.534 253.791 40.43 254.943 40.622H255.135C257.183 40.622 261.343 35.886 263.135 33.134C263.199 33.07 263.263 33.006 263.327 33.006C263.455 33.006 263.583 33.134 263.583 33.262V33.39C262.303 35.374 257.887 41.518 254.751 41.518L254.303 41.454C252.063 41.006 251.551 39.15 251.551 37.294C251.551 35.95 251.807 34.606 251.807 33.838C251.807 33.582 251.807 33.454 251.743 33.326C251.615 33.134 251.423 33.07 251.231 33.07C248.927 33.07 242.079 41.902 241.759 42.222C241.631 42.414 241.503 42.478 241.311 42.478C240.863 42.478 240.351 41.966 240.351 41.39V41.326C240.351 38.126 243.295 31.342 243.295 29.806L243.231 29.55C243.103 29.294 242.847 29.166 242.527 29.166C239.711 29.166 230.431 40.366 229.215 43.502C229.151 43.758 228.831 43.822 228.575 43.822ZM264.104 34.414C265.576 34.414 267.752 33.326 267.752 32.238C267.752 32.174 267.752 32.046 267.688 31.918C267.624 31.726 267.368 31.598 267.112 31.598C266.344 31.598 265 32.366 263.592 34.35L264.104 34.414ZM275.048 43.822C274.6 43.822 274.152 43.502 274.152 42.99L274.216 42.67C275.368 39.406 278.696 32.302 278.696 30.766C278.696 30.574 278.632 30.446 278.504 30.446C277.288 30.51 269.544 43.758 264.296 43.758H263.848C261.352 43.374 260.392 41.646 260.392 39.598C260.392 36.078 263.336 31.47 266.28 31.022L266.984 30.958C267.624 30.958 268.072 31.15 268.264 31.534C268.392 31.79 268.456 32.046 268.456 32.238C268.456 33.838 265.896 34.99 263.912 34.99L263.272 34.926C262.312 36.462 261.608 38.318 261.608 39.918C261.608 41.198 262.12 42.286 263.208 42.798C263.528 42.926 263.912 43.054 264.296 43.054C268.904 43.054 275.56 31.598 278.312 29.614C278.568 29.422 278.824 29.358 279.08 29.358C279.592 29.358 280.104 29.742 280.104 30.446C280.104 32.878 276.52 40.174 276.136 41.518C278.056 38.702 281.384 31.15 284.52 31.15H284.648C285.864 31.214 286.184 32.238 286.184 33.582C286.184 35.31 285.672 37.55 285.672 39.214C285.672 40.238 285.864 41.07 286.504 41.454C286.696 41.582 286.888 41.582 287.08 41.582C289.32 41.582 292.968 35.438 294.696 33.07C294.76 33.006 294.824 33.006 294.888 33.006C295.016 33.006 295.144 33.07 295.144 33.198L295.08 33.39C292.648 36.91 289.96 42.35 286.632 42.35H286.44C284.328 42.158 283.88 40.302 283.88 38.254C283.88 36.654 284.2 34.926 284.2 33.774C284.2 33.262 284.072 32.878 283.88 32.75C283.752 32.686 283.688 32.686 283.56 32.686C281.448 32.686 276.52 42.094 275.88 43.31C275.688 43.694 275.368 43.822 275.048 43.822ZM293.746 51.31C292.018 50.99 291.186 49.646 291.186 47.214C291.186 44.782 291.826 41.582 293.042 37.678C294.258 33.774 295.73 29.678 297.522 25.39C299.25 21.166 301.042 17.262 302.77 13.614C296.754 14.126 292.658 14.766 290.546 15.534C290.034 15.726 289.458 15.918 288.882 15.982C288.498 15.982 288.306 15.79 288.306 15.47C288.306 15.15 288.498 14.958 288.946 14.894C294.002 13.806 298.738 13.166 303.154 12.846C306.29 6.382 308.274 2.926 309.106 2.478C309.426 2.286 309.746 2.222 310.066 2.222C310.834 2.222 311.218 2.734 311.218 3.758C311.154 4.846 310.962 5.614 310.514 6.062C310.066 6.51 309.618 6.894 309.106 7.15C308.402 7.47 307.826 7.918 307.378 8.622C307.058 9.134 306.418 10.478 305.33 12.654C308.594 12.462 311.538 12.334 314.162 12.334C318.898 12.334 322.738 12.59 325.618 13.166C327.538 13.614 328.498 14.19 328.498 15.086C328.306 16.046 327.73 16.494 326.898 16.494C326.45 16.494 326.194 16.174 326.194 15.47C326.194 15.278 326.258 15.086 326.322 14.958C323.122 13.806 318.386 13.23 312.178 13.23C309.81 13.23 307.378 13.294 304.946 13.486C300.658 22.382 297.266 30.382 294.77 37.614C293.298 41.902 292.594 45.23 292.594 47.726C292.594 49.198 293.106 49.902 294.13 49.902C295.474 49.71 297.074 48.622 299.058 46.51C301.042 44.462 303.026 42.158 305.074 39.662C307.442 36.782 309.362 34.542 310.962 33.07L311.154 33.006C311.474 33.006 311.666 33.134 311.666 33.39C311.666 33.518 311.602 33.646 311.474 33.71C309.746 35.31 307.762 37.614 305.394 40.622C304.05 42.35 302.642 44.014 301.234 45.614C299.826 47.214 298.482 48.558 297.202 49.646C295.858 50.734 294.706 51.31 293.746 51.31ZM326.467 44.526H326.275C324.547 44.462 323.459 43.438 323.075 41.902C322.947 41.454 322.883 40.942 322.883 40.494C322.883 36.206 326.787 30.318 330.563 30.19C332.163 30.19 333.379 31.022 333.379 32.43C333.379 33.006 333.187 33.71 332.611 34.542C332.355 34.798 332.163 34.862 331.971 34.862C331.715 34.862 331.587 34.67 331.587 34.478C331.587 34.35 331.651 34.222 331.715 34.094C331.971 33.71 332.419 32.686 332.419 31.918C332.419 31.47 332.291 31.086 331.907 30.958C331.651 30.894 331.459 30.83 331.203 30.83C328.131 30.83 324.547 37.294 324.547 41.134C324.547 42.67 325.059 43.758 326.403 43.886H326.723C330.691 43.886 337.411 36.334 341.123 33.134L341.379 33.006C341.571 33.006 341.635 33.134 341.635 33.262C341.635 33.39 341.635 33.518 341.507 33.582C336.963 37.55 331.075 44.526 326.467 44.526ZM350.741 44.014C350.357 44.014 349.973 43.694 349.973 43.246L350.037 42.99C352.213 35.886 356.245 30.894 356.245 29.294C356.245 28.974 356.117 28.782 355.861 28.718L355.285 28.654C352.789 28.654 347.413 31.214 345.493 31.854C346.133 32.494 346.389 33.39 346.389 34.414C346.389 35.118 346.261 35.886 346.005 36.654C345.109 39.79 342.613 42.862 340.757 42.862L340.373 42.798C339.221 42.478 338.773 41.454 338.773 40.11C338.773 37.294 340.821 33.07 342.037 31.79C342.165 31.662 342.357 31.598 342.549 31.598C342.997 31.598 343.317 31.918 343.317 32.302C343.317 32.494 343.253 32.686 343.125 32.814C341.845 34.158 339.861 38.51 339.861 40.878C339.861 41.518 340.053 42.03 340.437 42.222L340.629 42.286C341.845 42.286 345.237 37.678 345.237 34.478C345.237 33.518 344.917 32.75 344.149 32.174C344.021 32.11 343.957 31.918 343.957 31.79C343.957 31.47 344.149 31.086 344.661 31.086H344.853C346.005 31.086 352.021 27.886 355.285 27.886C355.989 27.886 356.565 28.014 356.949 28.398C357.205 28.718 357.333 29.102 357.333 29.55C357.333 32.11 354.197 36.974 353.557 38.318C356.629 34.478 362.069 28.846 366.037 27.502C366.421 27.374 366.805 27.31 367.189 27.31C368.085 27.31 368.789 27.758 368.789 28.654C368.789 29.038 368.661 29.422 368.469 29.87C367.253 32.686 365.077 38.062 364.181 41.262C367.189 37.166 371.093 32.046 373.653 32.046L374.293 32.11C374.997 32.366 375.317 33.006 375.317 33.774C375.317 36.142 373.013 40.11 373.013 42.286V42.606C373.013 42.734 373.141 42.798 373.269 42.798C373.461 42.798 373.781 42.67 373.973 42.606H374.037C374.293 42.606 374.485 42.862 374.485 43.118C374.485 43.246 374.485 43.31 374.357 43.374C374.165 43.502 373.973 43.566 373.717 43.566C372.949 43.566 372.117 42.862 372.053 42.03V41.71C372.053 39.598 374.037 34.798 374.037 33.262C374.037 32.942 373.973 32.75 373.781 32.686H373.653C370.837 32.686 364.565 41.902 364.245 42.286C364.053 42.542 363.861 42.606 363.605 42.606C363.221 42.606 362.901 42.286 362.901 41.838V41.71C363.733 37.422 365.461 33.07 367.125 29.294L367.253 28.718C367.253 28.334 366.997 28.206 366.677 28.206L366.293 28.27C360.981 29.998 353.301 38.766 351.445 43.502C351.317 43.822 351.061 44.014 350.741 44.014ZM369.03 66.094C368.71 66.094 368.326 65.838 368.326 65.39V65.326C368.582 59.566 379.014 32.302 380.614 29.678C380.742 29.422 380.998 29.294 381.19 29.294C381.446 29.294 381.638 29.486 381.638 29.806L381.574 30.126C379.206 35.31 376.07 44.846 375.366 46.702C377.734 41.774 383.046 29.998 388.934 29.998L389.702 30.062C391.302 30.318 392.39 31.534 392.39 33.07L392.262 33.902C393.67 33.582 396.102 33.198 398.534 32.942C398.79 32.942 398.918 33.134 398.918 33.262C398.918 33.39 398.854 33.582 398.598 33.582C395.974 33.774 394.374 34.158 392.134 34.67C390.726 38.702 386.438 42.158 383.942 42.158C383.174 42.158 382.534 41.838 382.278 41.07L382.15 40.494C382.15 37.934 387.974 35.118 390.406 34.414C390.534 34.03 390.598 33.518 390.598 33.006C390.598 32.238 390.406 31.47 389.574 31.214C389.254 31.086 388.934 31.086 388.614 31.086C384.39 31.086 380.038 39.086 376.262 47.47C372.934 54.83 370.566 63.086 369.734 65.582C369.606 65.966 369.35 66.094 369.03 66.094ZM383.686 41.262C385.414 41.262 389.318 37.102 390.022 35.438C388.55 35.694 382.918 38.574 382.918 40.43V40.686C383.046 41.134 383.302 41.262 383.686 41.262ZM403.642 23.918C409.53 20.91 419.13 8.11 419.13 4.718C419.13 4.27 419.002 4.014 418.682 3.886H418.362C414.586 3.886 408.25 13.87 403.642 23.918ZM398.906 50.03H398.586C396.666 49.838 395.834 47.982 395.834 45.038C395.834 32.814 410.17 2.542 417.594 2.542C418.042 2.542 418.426 2.67 418.81 2.862C419.45 3.182 419.706 3.822 419.706 4.654C419.706 10.158 407.354 24.494 402.874 25.39C402.042 27.246 397.114 39.79 397.114 45.87C397.114 47.726 397.562 48.942 398.778 49.07H399.034C403.962 49.07 413.882 35.438 417.658 33.006C417.722 32.942 417.85 32.942 417.914 32.942C418.17 32.942 418.298 33.134 418.298 33.326C418.298 33.454 418.234 33.582 418.106 33.71C413.818 36.718 404.73 50.03 398.906 50.03ZM432.234 52.014C431.338 52.014 430.698 50.926 430.698 49.326C430.954 42.734 437.482 27.566 443.818 14.446C436.522 27.246 426.538 44.078 419.114 44.078C416.426 44.078 414.698 42.03 414.698 39.662C414.698 35.758 418.602 30.446 421.994 30.318C423.146 30.318 423.53 30.638 423.722 31.79C423.722 33.902 419.498 34.862 417.962 34.862C416.874 36.398 416.042 38.382 416.042 39.982C416.042 41.71 417.194 43.054 419.114 43.054C425.514 43.054 435.562 26.862 442.858 14.382L441.386 14.318C439.978 14.318 438.634 14.446 437.354 14.446C432.234 14.446 427.178 14.958 421.802 15.342C421.354 15.342 421.098 15.15 421.098 14.83C421.098 14.51 421.354 14.126 421.802 14.062H422.698C426.282 14.062 430.058 13.742 434.09 13.614L443.498 13.422C446.25 8.622 448.554 4.526 450.09 2.158C450.474 1.326 450.346 0.878002 451.242 0.878002C451.754 0.878002 452.266 1.262 452.266 1.71C452.266 1.838 452.266 1.902 452.202 2.03C450.346 5.422 448.298 9.262 446.314 13.294L458.218 12.974C462.57 12.974 465.578 13.166 466.282 13.55C466.538 13.742 466.666 13.934 466.666 14.19C466.666 14.574 466.346 14.958 465.898 14.958C465.002 14.702 463.914 14.254 455.53 14.254L445.802 14.382C439.402 27.182 432.298 43.054 432.17 49.454C432.17 50.414 432.298 50.862 432.554 50.862L432.938 50.798C433.194 50.798 433.322 50.99 433.322 51.246C433.322 51.758 432.682 52.014 432.234 52.014ZM418.794 33.966C420.138 33.966 422.954 32.814 422.954 31.79C422.89 31.342 422.762 31.15 422.378 31.15C421.29 31.15 419.05 33.518 418.666 33.966H418.794Z" fill="#0E1E37"/>
</svg>
