<svg width="32" height="33" viewBox="0 0 32 33" fill="none" xmlns="http://www.w3.org/2000/svg">
<path fill-rule="evenodd" clip-rule="evenodd" d="M13.6668 29.0233C13.6668 29.5095 13.4736 29.9759 13.1298 30.3197C12.786 30.6635 12.3196 30.8566 11.8334 30.8566C11.3472 30.8566 10.8809 30.6635 10.5371 30.3197C10.1932 29.9759 10.0001 29.5095 10.0001 29.0233V8.85665C10.0001 8.37042 10.1932 7.9041 10.5371 7.56029C10.8809 7.21647 11.3472 7.02332 11.8334 7.02332C12.3196 7.02332 12.786 7.21647 13.1298 7.56029C13.4736 7.9041 13.6668 8.37042 13.6668 8.85665V29.0233ZM6.33342 29.0233C6.33342 29.5095 6.14026 29.9759 5.79644 30.3197C5.45263 30.6635 4.98631 30.8566 4.50008 30.8566C4.01385 30.8566 3.54754 30.6635 3.20372 30.3197C2.8599 29.9759 2.66675 29.5095 2.66675 29.0233V16.19C2.66675 15.7038 2.8599 15.2374 3.20372 14.8936C3.54754 14.5498 4.01385 14.3566 4.50008 14.3566C4.98631 14.3566 5.45263 14.5498 5.79644 14.8936C6.14026 15.2374 6.33342 15.7038 6.33342 16.19V29.0233ZM17.3334 29.0233V12.5233C17.3334 12.0371 17.5266 11.5708 17.8704 11.227C18.2142 10.8831 18.6805 10.69 19.1668 10.69C19.653 10.69 20.1193 10.8831 20.4631 11.227C20.8069 11.5708 21.0001 12.0371 21.0001 12.5233V29.0233C21.0001 29.5095 20.8069 29.9759 20.4631 30.3197C20.1193 30.6635 19.653 30.8566 19.1668 30.8566C18.6805 30.8566 18.2142 30.6635 17.8704 30.3197C17.5266 29.9759 17.3334 29.5095 17.3334 29.0233ZM24.6668 3.35665C24.6668 2.87042 24.8599 2.4041 25.2037 2.06029C25.5475 1.71647 26.0139 1.52332 26.5001 1.52332C26.9863 1.52332 27.4526 1.71647 27.7965 2.06029C28.1403 2.4041 28.3334 2.87042 28.3334 3.35665V29.0233C28.3334 29.5095 28.1403 29.9759 27.7965 30.3197C27.4526 30.6635 26.9863 30.8566 26.5001 30.8566C26.0139 30.8566 25.5475 30.6635 25.2037 30.3197C24.8599 29.9759 24.6668 29.5095 24.6668 29.0233V3.35665Z" fill="#CFBB95"/>
</svg>
