<svg width="363" height="83" viewBox="0 0 363 83" fill="none" xmlns="http://www.w3.org/2000/svg">
<path d="M38.9149 71.35C38.6349 71.35 38.4249 71.28 38.2149 71C36.8849 69.39 36.3249 66.52 36.3249 62.95C36.3249 55.39 38.7749 44.54 41.9949 33.97C38.0749 34.25 33.4549 34.74 28.6949 35.37C19.9449 47.06 11.1249 58.75 2.16488 65.33C1.95488 65.47 1.81488 65.54 1.60488 65.54C1.11488 65.54 0.694883 65.05 0.694883 64.56C0.694883 64.28 0.764883 64.07 1.04488 63.86C9.51488 57.77 18.7549 46.71 27.0849 35.65C19.1749 36.84 10.2849 39.15 6.71488 40.55L6.50488 40.62C6.29488 40.62 6.15488 40.41 6.15488 40.2C6.15488 39.99 6.29488 39.78 6.50488 39.71C10.9849 37.82 19.1749 35.44 27.8549 34.25C36.1149 23.19 44.4449 10.87 54.0349 1.14C54.2449 0.930001 54.4549 0.859998 54.6649 0.859998C55.1549 0.859998 55.5749 1.21 55.5749 1.7L55.5049 2.05C52.1449 11.78 48.7849 20.11 44.7949 32.64L47.6649 32.57C50.0449 32.57 52.7049 32.78 52.7049 34.18V34.32C52.6349 34.88 52.0749 35.44 51.5149 35.44C51.3049 35.44 51.0249 35.37 50.8149 35.09C50.7449 34.95 50.6749 34.74 50.6749 34.6C50.6749 34.39 50.7449 34.18 50.8149 34.04C50.3249 33.76 49.1349 33.62 47.8049 33.62L44.5149 33.76C41.0149 44.75 38.0749 56.23 38.0749 63.51C38.0749 66.38 38.5649 68.62 39.6149 69.88C39.7549 70.09 39.8249 70.23 39.8249 70.44C39.8249 70.93 39.4049 71.35 38.9149 71.35ZM29.7449 33.9C34.2249 33.34 38.8449 32.92 42.4149 32.71C45.7049 22.28 48.7849 13.88 51.5149 6.53C44.0949 14.79 36.5349 24.8 29.7449 33.9ZM62.5426 71.35C62.4026 71.35 62.2626 71.28 62.0526 71.21C61.4926 70.79 61.2126 69.88 61.2126 68.55C61.2126 63.86 64.4326 53.92 68.6326 43.35C69.9626 39.85 72.4826 33.2 74.0226 29.77C65.2726 44.68 53.7226 64.63 48.1926 65.19L47.7726 65.26C45.6026 65.26 44.7626 63.44 44.7626 60.43C44.7626 46.99 62.6126 10.38 69.1226 10.38L69.7526 10.52C70.0326 10.66 70.1726 10.94 70.1726 11.36C70.1726 16.61 52.3226 41.88 50.5026 44.4C49.6626 46.71 46.3726 56.09 46.3726 60.92C46.3726 62.67 46.7926 63.79 47.8426 63.79H48.1226C53.5126 62.95 68.4926 37.4 77.5226 21.51C80.8126 15.77 83.4026 11.08 84.5926 9.47C84.8026 9.26 85.0126 9.19 85.2926 9.19C85.7126 9.19 86.1326 9.54 86.1326 9.96L85.9926 10.45C82.1426 16.19 71.1526 41.46 70.1026 43.91C65.9026 54.69 62.5426 64.63 62.5426 68.34C62.5426 69.11 62.6826 69.6 63.0326 69.81C63.2426 70.02 63.3826 70.23 63.3826 70.51C63.3826 70.93 63.0326 71.35 62.5426 71.35ZM52.1826 40.06C59.6726 29.49 69.4026 13.88 69.4026 11.85L69.3326 11.64L69.1226 11.57C66.7426 11.57 57.4326 28.09 52.1826 40.06ZM85.9959 81.64C85.6459 81.64 85.2959 81.57 85.0159 81.36C84.3859 81.01 84.1059 80.38 84.1059 79.47C84.1059 73.17 98.3859 55.6 100.416 53.29C101.886 49.23 103.356 44.68 104.056 42.3C101.956 45.03 94.8159 53.71 92.0859 54.27L91.5959 54.34C90.5459 54.34 89.9859 53.5 89.9859 52.24V52.03C90.0559 48.32 93.6959 40.48 94.9559 38.8C95.0959 38.59 95.3759 38.52 95.5859 38.52C96.2159 38.52 96.9159 39.01 96.9159 39.5C96.9159 39.64 96.8459 39.78 96.7059 39.92C95.7959 40.83 91.1759 50.21 91.1759 52.45C91.1759 52.66 91.1759 52.8 91.2459 52.87C91.3159 53.01 91.4559 53.01 91.6659 53.01C94.1159 53.01 103.426 41.39 104.686 40.06C104.826 39.85 105.036 39.78 105.246 39.78C105.666 39.78 106.086 40.13 106.086 40.62C106.086 41.46 104.896 45.8 103.216 50.7C107.066 46.43 112.176 42.79 113.856 42.23L114.136 42.16C114.556 42.16 114.976 42.58 114.976 43C114.976 43.21 114.906 43.42 114.766 43.56C113.366 45.03 110.776 50.21 110.776 52.59C110.776 53.29 110.916 53.71 111.406 53.85H111.686C113.646 53.85 116.936 49.23 116.936 45.66C116.936 44.61 116.656 43.56 115.886 42.86C115.816 42.79 115.816 42.72 115.816 42.58C115.816 42.23 115.956 41.81 116.376 41.81L116.656 41.88C117.566 42.09 118.406 42.23 119.246 42.23C122.326 42.23 124.566 40.69 125.336 40.13L125.476 40.06C125.476 39.99 125.546 39.99 125.546 39.99L125.826 39.92C126.316 39.92 126.736 40.27 126.736 40.76L126.596 41.18C125.896 42.23 122.886 49.79 122.886 52.03C122.886 52.38 122.956 52.59 123.096 52.66H123.166C124.426 52.66 131.986 41.95 132.686 40.69C132.826 40.41 133.106 40.34 133.386 40.34C133.806 40.34 134.296 40.62 134.296 40.97L134.226 41.18C133.456 43 130.726 49.51 130.726 52.45C130.726 52.94 130.796 53.29 131.006 53.57C131.076 53.71 131.216 53.71 131.356 53.71C133.246 53.71 140.386 45.45 141.576 43.98C141.646 43.84 141.786 43.77 141.926 43.77C142.066 43.77 142.276 43.91 142.276 44.12L142.136 44.4C139.616 47.69 133.666 54.55 131.146 54.55H130.866C129.816 54.27 129.466 53.22 129.466 51.82C129.466 49.44 130.586 46.08 130.936 44.75C129.256 46.99 124.916 53.71 123.096 53.71H123.026C122.046 53.57 121.696 52.73 121.696 51.47C121.696 48.39 123.866 43.07 124.846 40.97C123.096 42.09 121.136 42.79 119.106 42.79C118.546 42.79 117.916 42.72 117.286 42.58C117.846 43.21 118.126 44.19 118.126 45.24C118.126 49.16 114.906 54.69 111.686 54.69H111.266C110.006 54.55 109.586 53.57 109.586 52.24C109.586 49.79 111.196 46.08 112.526 43.91C109.866 45.24 106.506 48.18 102.516 52.8C101.116 56.65 91.6659 81.64 85.9959 81.64ZM85.7859 80.87C89.0059 80.87 98.8059 57.98 99.6459 55.74C97.6859 58.05 85.0159 74.85 85.0159 79.68C85.0159 80.17 85.1559 80.52 85.4359 80.73L85.7859 80.87ZM153.863 56.79C153.373 56.79 152.953 56.44 152.953 56.02L153.023 55.74C154.353 51.68 157.643 43.7 159.743 40.27C159.883 39.99 160.163 39.85 160.443 39.85C160.863 39.85 161.283 40.2 161.283 40.69L161.143 41.11C159.813 43.35 157.293 49.3 156.033 52.52C157.363 50.7 164.083 40.76 167.443 40.76C167.793 40.76 168.073 40.9 168.353 41.11C168.703 41.46 168.843 41.88 168.843 42.51C168.843 44.89 166.323 49.16 166.323 51.82C166.323 52.73 166.603 53.43 167.303 53.85C167.583 53.99 167.933 54.13 168.283 54.13C169.403 54.13 171.013 53.36 172.623 52.17V51.96C172.623 47.55 177.383 41.39 180.113 41.39L180.603 41.46C181.023 41.67 181.373 42.02 181.513 42.65V42.93C181.513 44.89 177.873 49.23 174.023 52.24V52.45C174.023 53.64 174.513 54.55 175.983 54.83L176.613 54.9C180.953 54.9 186.483 46.92 188.653 43.98C188.793 43.84 188.933 43.77 189.073 43.77C189.213 43.77 189.353 43.91 189.353 44.05C189.353 44.12 189.353 44.26 189.283 44.33C187.533 47.2 181.373 55.88 176.753 55.88H176.683C174.303 55.81 173.113 54.69 172.763 53.15C171.013 54.34 169.193 55.11 167.793 55.11C167.303 55.11 166.813 55.04 166.393 54.76C165.133 54.06 164.713 52.8 164.713 51.33C164.713 47.76 167.443 43.07 167.443 42.09L167.373 41.95C167.303 41.88 167.233 41.88 167.093 41.88C164.923 41.88 155.333 55.11 154.493 56.44C154.283 56.65 154.073 56.79 153.863 56.79ZM174.163 51.05C177.453 48.39 180.463 44.82 180.463 43.28V43.14C180.463 43.07 180.323 43 180.113 42.93L179.693 42.86C179.133 42.86 177.453 44.61 176.893 45.31C176.123 46.36 174.653 48.88 174.163 51.05ZM190.154 44.82C192.114 44.82 194.214 43.77 194.214 42.79C194.144 42.37 194.004 42.16 193.514 42.16C192.604 42.16 191.204 43 190.014 44.82H190.154ZM190.014 55.74C187.214 55.74 186.094 53.64 186.094 51.05C186.094 46.57 189.104 41.25 193.374 41.04C194.564 41.04 195.124 41.6 195.194 42.72C195.194 44.47 192.044 45.52 190.014 45.52H189.664C188.964 46.43 187.704 49.51 187.704 51.89C187.704 53.57 188.264 54.83 190.084 54.83C190.434 54.83 190.714 54.83 191.064 54.76C195.054 53.92 199.534 47.76 202.614 43.98C202.754 43.84 202.894 43.77 203.034 43.77C203.244 43.77 203.384 43.91 203.384 44.19C203.384 44.26 203.384 44.4 203.244 44.54C200.584 47.9 196.384 54.48 191.554 55.53C190.994 55.67 190.504 55.74 190.014 55.74ZM200.951 53.43C202.701 53.43 207.321 48.39 208.581 46.22C208.651 45.87 208.721 45.45 208.721 45.03C208.721 43.77 208.371 42.23 207.881 42.02L207.531 41.95C205.151 41.95 200.251 49.51 200.251 52.38V52.45C200.251 53.15 200.531 53.43 200.951 53.43ZM209.281 58.47H209.211C207.461 58.4 206.901 56.51 206.901 54.34C206.901 52.24 207.461 49.86 207.811 48.67C206.271 50.42 203.121 54.48 200.741 54.48H200.601C199.341 54.41 198.781 53.43 198.781 52.1C198.781 48.18 203.261 40.83 207.461 40.83C207.741 40.83 208.021 40.83 208.301 40.9C209.211 41.04 209.491 41.81 209.631 42.44C210.961 38.59 221.951 10.73 227.061 10.73C227.271 10.73 227.481 10.73 227.691 10.87C227.971 11.01 228.111 11.36 228.111 11.92C228.111 17.59 212.431 43.49 210.121 46.5C209.141 49.86 208.441 53.29 208.441 55.39C208.441 55.88 208.511 56.3 208.581 56.65C208.721 57.28 209.071 57.49 209.631 57.49C212.991 57.49 223.001 45.1 224.191 43.84L224.471 43.7C224.681 43.7 224.751 43.84 224.751 43.98C224.751 44.05 224.751 44.12 224.681 44.19C222.371 47.27 213.201 58.47 209.281 58.47ZM210.821 44.05C212.221 42.02 227.201 16.05 227.201 12.34C227.201 12.13 227.201 11.99 227.061 11.92H226.921C223.911 11.92 212.361 39.85 210.821 44.05ZM251.071 56.51C250.791 56.51 250.441 56.44 250.091 56.23C249.601 55.95 249.391 55.46 249.391 54.9C249.391 54.34 249.601 53.71 249.881 53.15C251.281 50.49 255.621 47.55 256.041 47.34C256.741 44.61 257.091 41.81 257.091 39.01V38.24C253.521 43 245.261 54.2 240.921 54.41H240.711C239.031 54.41 238.471 53.22 238.471 51.4C238.471 47.48 241.551 40.76 242.531 39.29C242.671 39.01 242.951 38.87 243.161 38.87C243.581 38.87 244.001 39.22 244.001 39.64C244.001 39.78 244.001 39.99 243.861 40.13C242.951 41.53 239.871 48.81 239.871 51.96C239.871 52.59 240.011 53.08 240.291 53.29C240.501 53.43 240.781 53.57 241.061 53.57C244.841 53.57 254.991 39.71 257.161 36.77C257.371 36.49 257.791 36.35 258.071 36.35C258.561 36.35 258.911 36.56 258.981 37.05V38.03C258.981 40.62 258.561 43.7 257.931 46.5C260.731 44.89 262.761 44.19 264.441 43.77H264.511C264.721 43.77 264.861 43.98 264.861 44.12C264.861 44.26 264.791 44.4 264.651 44.47C262.131 45.24 259.751 46.22 257.721 47.55C256.601 51.54 253.731 56.51 251.071 56.51ZM251.001 55.88C252.821 55.88 255.201 50.28 255.691 48.53C254.991 49.02 251.841 51.4 250.651 53.43C250.371 53.92 250.161 54.48 250.161 54.97C250.161 55.25 250.231 55.53 250.441 55.67C250.651 55.81 250.791 55.88 251.001 55.88ZM245.191 36.42C244.841 36.42 244.631 36.21 244.631 35.72C244.631 35.44 244.701 35.09 244.841 34.67C245.051 34.04 245.401 33.41 246.031 33.27H246.171C246.521 33.27 246.871 33.55 247.011 33.9L247.081 34.32C247.081 35.09 246.521 35.44 245.821 36.14C245.611 36.35 245.331 36.42 245.191 36.42ZM283.003 73.03L282.373 72.96C280.553 72.61 279.853 70.72 279.853 67.85C279.853 54.27 296.303 18.36 298.333 14.09C299.103 12.41 299.173 8.07 301.553 6.95C301.903 6.74 302.323 6.67 302.673 6.67C303.373 6.67 303.933 7.02 303.933 7.65C303.933 7.86 303.863 8.14 303.653 8.49C300.433 13.32 281.113 55.88 281.113 68.41C281.113 70.37 281.603 71.63 282.653 71.84H282.933C286.223 71.84 300.573 62.25 310.023 62.25C311.283 62.25 312.473 62.39 313.523 62.81C313.733 62.88 313.873 63.16 313.873 63.44C313.873 63.86 313.593 64.35 313.243 64.35C313.103 64.35 313.033 64.35 312.893 64.28C311.913 63.86 310.793 63.65 309.603 63.65C302.673 63.65 292.243 69.6 285.103 72.54C284.333 72.82 283.633 73.03 283.003 73.03ZM317.841 61.9C317.421 61.9 317.001 61.62 317.001 61.13V60.99C317.001 56.3 323.301 41.39 327.011 33.2C321.201 43.49 314.271 55.04 310.771 55.53L310.211 55.6C308.251 55.6 307.411 54.06 307.411 52.03C307.411 48.81 309.441 44.12 312.731 41.18L310.491 41.11C307.831 41.11 305.031 41.39 303.001 42.02C304.051 42.65 304.471 43.84 304.471 45.24C304.471 49.16 300.971 54.76 298.311 54.76C297.821 54.76 297.401 54.62 297.051 54.27C296.421 53.64 296.141 52.73 296.141 51.75C296.141 48.53 298.661 43.98 300.131 42.44C300.201 42.3 300.341 42.3 300.481 42.3C300.831 42.3 301.251 42.72 301.251 43.07L301.111 43.35C299.641 44.82 297.401 49.72 297.401 52.24C297.401 52.94 297.541 53.5 297.961 53.71L298.171 53.78C299.641 53.78 303.491 48.81 303.491 45.31C303.491 44.33 303.211 43.42 302.441 42.86C302.021 42.51 301.811 42.3 301.811 42.09C301.811 41.95 301.811 41.81 301.951 41.67C302.721 40.69 306.151 40.41 309.651 40.41C310.981 40.41 312.311 40.41 313.571 40.48C314.551 39.78 315.461 39.57 316.301 39.57C316.651 39.57 317.071 39.64 317.421 39.71C318.751 40.06 319.311 40.9 319.311 41.39C319.311 41.67 319.171 41.81 318.961 41.81L318.891 41.88C318.891 41.88 318.821 41.88 318.821 41.81L315.251 41.39C314.901 41.53 314.551 41.81 314.201 42.09C311.261 44.47 308.881 49.72 308.881 52.73C308.881 53.57 309.091 54.27 309.511 54.62C309.721 54.76 309.931 54.83 310.141 54.83C315.671 54.83 334.781 15.84 338.701 11.15C338.911 10.94 339.121 10.87 339.331 10.87C339.821 10.87 340.381 11.29 340.381 11.78L340.241 12.13C339.751 12.97 337.861 14.86 337.511 15.49C334.151 20.95 329.951 30.75 325.261 41.25C321.551 49.93 318.611 57.77 318.611 60.92V61.13C318.611 61.62 318.191 61.9 317.841 61.9ZM327.566 52.59C328.686 52.59 332.606 49.65 336.036 45.1C336.176 44.12 336.386 43 336.386 42.16C336.386 41.6 336.316 41.11 336.036 40.97C335.826 40.83 335.616 40.76 335.336 40.76C332.396 40.76 327.006 48.6 327.006 51.54C327.006 52.03 327.076 52.31 327.356 52.52L327.566 52.59ZM317.906 82.41C317.556 82.41 317.206 82.34 316.856 82.13C316.156 81.71 315.876 81.08 315.876 80.24C315.876 74.36 330.856 58.89 332.956 57.07C335.266 51.89 336.456 48.32 337.646 44.96C335.756 47.48 331.066 53.57 327.916 53.57H327.776C326.026 53.5 325.326 52.52 325.326 51.05C325.326 47.2 330.296 40.13 334.216 39.5L334.916 39.43C336.736 39.43 337.926 40.62 337.926 42.37V42.72C338.276 42.44 338.136 42.37 338.766 41.53C339.536 40.34 340.166 39.92 340.656 39.92C341.286 39.92 341.636 40.69 341.636 41.25L341.566 41.67C341.356 42.23 341.146 41.88 340.656 43.21C339.606 46.15 337.646 50.07 335.686 54.69C339.676 50.42 345.416 44.54 347.656 43.77L347.866 43.7C348.076 43.7 348.286 43.91 348.286 44.12C348.286 44.26 348.216 44.4 348.006 44.47C344.926 46.01 335.266 56.58 334.636 57.35C332.676 61.76 323.506 82.41 317.906 82.41ZM317.836 81.5C321.406 81.5 330.506 62.11 331.416 60.29C329.386 61.69 316.856 76.18 316.856 80.31C316.856 80.52 316.856 80.8 316.996 80.94C317.206 81.29 317.486 81.5 317.836 81.5ZM349.158 44.82C351.118 44.82 353.218 43.77 353.218 42.79C353.148 42.37 353.008 42.16 352.518 42.16C351.608 42.16 350.208 43 349.018 44.82H349.158ZM349.018 55.74C346.218 55.74 345.098 53.64 345.098 51.05C345.098 46.57 348.108 41.25 352.378 41.04C353.568 41.04 354.128 41.6 354.198 42.72C354.198 44.47 351.048 45.52 349.018 45.52H348.668C347.968 46.43 346.708 49.51 346.708 51.89C346.708 53.57 347.268 54.83 349.088 54.83C349.438 54.83 349.718 54.83 350.068 54.76C354.058 53.92 358.538 47.76 361.618 43.98C361.758 43.84 361.898 43.77 362.038 43.77C362.248 43.77 362.388 43.91 362.388 44.19C362.388 44.26 362.388 44.4 362.248 44.54C359.588 47.9 355.388 54.48 350.558 55.53C349.998 55.67 349.508 55.74 349.018 55.74Z" fill="#0E1E37"/>
</svg>
