<svg width="32" height="33" viewBox="0 0 32 33" fill="none" xmlns="http://www.w3.org/2000/svg">
<path fill-rule="evenodd" clip-rule="evenodd" d="M0 4.19002C0 3.45364 0.596954 2.85669 1.33333 2.85669H30.6667C31.403 2.85669 32 3.45364 32 4.19002V10.8567C32 11.5931 31.403 12.19 30.6667 12.19H29.3333V28.19C29.3333 28.9264 28.7364 29.5234 28 29.5234H4C3.26362 29.5234 2.66667 28.9264 2.66667 28.19V12.19H1.33333C0.596954 12.19 0 11.5931 0 10.8567V4.19002ZM5.33333 12.19V26.8567H26.6667V12.19H5.33333ZM29.3333 9.52336H2.66667V5.52336H29.3333V9.52336ZM12 16.19C12 15.4536 12.597 14.8567 13.3333 14.8567H18.6667C19.403 14.8567 20 15.4536 20 16.19C20 16.9264 19.403 17.5234 18.6667 17.5234H13.3333C12.597 17.5234 12 16.9264 12 16.19Z" fill="#CFBB95"/>
</svg>
