<svg width="32" height="33" viewBox="0 0 32 33" fill="none" xmlns="http://www.w3.org/2000/svg">
<g clip-path="url(#clip0_161_2317)">
<path fill-rule="evenodd" clip-rule="evenodd" d="M15.9999 2.85661C11.5816 2.85661 7.99992 6.43833 7.99992 10.8566C7.99992 15.2749 11.5816 18.8566 15.9999 18.8566C17.5517 18.8566 19.0003 18.4148 20.2268 17.6501C20.293 17.5976 20.3646 17.5513 20.4407 17.5119C22.5867 16.0771 23.9999 13.6319 23.9999 10.8566C23.9999 6.43833 20.4182 2.85661 15.9999 2.85661ZM22.4821 19.3284C25.0261 17.3789 26.6666 14.3093 26.6666 10.8566C26.6666 4.96557 21.891 0.189941 15.9999 0.189941C10.1089 0.189941 5.33325 4.96557 5.33325 10.8566C5.33325 14.31 6.97436 17.3801 9.51925 19.3295L8.01153 30.6811C7.94411 31.1886 8.17328 31.6899 8.6012 31.971C9.02912 32.2521 9.58022 32.2634 10.0192 31.9999L15.9999 28.4115L21.9806 31.9999C22.4196 32.2633 22.9706 32.2521 23.3986 31.9711C23.8265 31.69 24.0557 31.1888 23.9883 30.6812L22.4821 19.3284ZM19.9814 20.7554C18.7512 21.2507 17.4074 21.5233 15.9999 21.5233C14.593 21.5233 13.2497 21.2509 12.0199 20.756L11.0192 28.2901L15.3139 25.7133C15.7362 25.4599 16.2637 25.4599 16.6859 25.7133L20.9811 28.2904L19.9814 20.7554Z" fill="#CFBB95"/>
</g>
<defs>
<clipPath id="clip0_161_2317">
<rect width="32" height="32" fill="white" transform="translate(0 0.189941)"/>
</clipPath>
</defs>
</svg>
