<svg width="32" height="33" viewBox="0 0 32 33" fill="none" xmlns="http://www.w3.org/2000/svg">
<path fill-rule="evenodd" clip-rule="evenodd" d="M8.66667 4.18998C8.13623 4.18998 7.62753 4.4007 7.25245 4.77577C6.87738 5.15084 6.66667 5.65955 6.66667 6.18998V21.9736C7.2859 21.6799 7.96821 21.5233 8.66667 21.5233H25.3333V4.18998H8.66667ZM28 2.85665C28 2.12027 27.403 1.52332 26.6667 1.52332H8.66667C7.42899 1.52332 6.242 2.01498 5.36683 2.89015C4.49167 3.76532 4 4.9523 4 6.18998V26.19C4 27.4277 4.49167 28.6146 5.36683 29.4898C6.242 30.365 7.42899 30.8566 8.66667 30.8566H26.6667C27.403 30.8566 28 30.2597 28 29.5233V2.85665ZM25.3333 24.19H8.66667C8.13623 24.19 7.62753 24.4007 7.25245 24.7758C6.87738 25.1508 6.66667 25.6595 6.66667 26.19C6.66667 26.7204 6.87738 27.2291 7.25245 27.6042C7.62753 27.9793 8.13623 28.19 8.66667 28.19H25.3333V24.19Z" fill="#CFBB95"/>
</svg>
