<svg width="30" height="28" viewBox="0 0 30 28" fill="none" xmlns="http://www.w3.org/2000/svg">
<path fill-rule="evenodd" clip-rule="evenodd" d="M9.50495 2.02826C10.2551 1.27812 11.2725 0.856689 12.3334 0.856689H17.6667C18.7276 0.856689 19.745 1.27812 20.4951 2.02826C21.2453 2.77841 21.6667 3.79582 21.6667 4.85669V6.19002H25.6667C27.8758 6.19002 29.6667 7.98088 29.6667 10.19V23.5234C29.6667 25.7325 27.8758 27.5234 25.6667 27.5234H4.33337C2.12423 27.5234 0.333374 25.7325 0.333374 23.5234V10.19C0.333374 7.98088 2.12423 6.19002 4.33337 6.19002H8.33337V4.85669C8.33337 3.79582 8.7548 2.77841 9.50495 2.02826ZM8.33337 8.85669H4.33337C3.59699 8.85669 3.00004 9.45364 3.00004 10.19V23.5234C3.00004 24.2597 3.59699 24.8567 4.33337 24.8567H8.33337V8.85669ZM11 24.8567V8.85669H19V24.8567H11ZM21.6667 24.8567H25.6667C26.4031 24.8567 27 24.2597 27 23.5234V10.19C27 9.45364 26.4031 8.85669 25.6667 8.85669H21.6667V24.8567ZM19 6.19002H11V4.85669C11 4.50307 11.1405 4.16393 11.3906 3.91388C11.6406 3.66383 11.9798 3.52336 12.3334 3.52336H17.6667C18.0203 3.52336 18.3595 3.66383 18.6095 3.91388C18.8596 4.16393 19 4.50307 19 4.85669V6.19002Z" fill="#CFBB95"/>
</svg>
