<svg width="30" height="30" viewBox="0 0 30 30" fill="none" xmlns="http://www.w3.org/2000/svg">
<path fill-rule="evenodd" clip-rule="evenodd" d="M19.884 4.22125C17.5203 3.16806 14.8795 2.90715 12.3554 3.47743C9.83133 4.04771 7.55921 5.41864 5.87792 7.38574C4.19663 9.35285 3.19626 11.8107 3.02599 14.3928C2.85573 16.9749 3.5247 19.5429 4.93313 21.7137C6.34157 23.8846 8.414 25.542 10.8413 26.4388C13.2687 27.3355 15.9209 27.4236 18.4024 26.6899C20.8839 25.9562 23.0618 24.44 24.6112 22.3674C26.1606 20.2949 26.9985 17.777 27 15.1893V13.9634C27 13.227 27.5969 12.63 28.3333 12.63C29.0697 12.63 29.6667 13.227 29.6667 13.9634V15.19C29.6648 18.3528 28.6407 21.431 26.747 23.9641C24.8533 26.4973 22.1915 28.3504 19.1585 29.2472C16.1255 30.1439 12.884 30.0362 9.9172 28.9402C6.95045 27.8441 4.41747 25.8184 2.69605 23.1651C0.974637 20.5119 0.157007 17.3733 0.365106 14.2174C0.573205 11.0615 1.79588 8.05739 3.85079 5.65315C5.9057 3.24891 8.68273 1.57334 11.7677 0.876326C14.8527 0.179312 18.0804 0.498206 20.9693 1.78545C21.642 2.08515 21.9443 2.87339 21.6446 3.54602C21.3449 4.21865 20.5566 4.52096 19.884 4.22125Z" fill="#3263AC"/>
<path fill-rule="evenodd" clip-rule="evenodd" d="M29.2757 3.58007C29.7966 4.10051 29.797 4.94473 29.2766 5.46569L15.9433 18.8124C15.6933 19.0626 15.3541 19.2033 15.0003 19.2034C14.6466 19.2034 14.3073 19.063 14.0572 18.8128L10.0572 14.8128C9.53648 14.2921 9.53648 13.4479 10.0572 12.9272C10.5779 12.4065 11.4221 12.4065 11.9428 12.9272L14.9995 15.9839L27.39 3.58101C27.9105 3.06005 28.7547 3.05963 29.2757 3.58007Z" fill="#3263AC"/>
</svg>
