<svg width="30" height="30" viewBox="0 0 30 30" fill="none" xmlns="http://www.w3.org/2000/svg">
<path d="M6.77729 6.80903H8.87253V10.9995H6.77729V6.80903Z" fill="#CFBB95"/>
<path d="M6.77729 13.0947H8.87253V17.2852H6.77729V13.0947Z" fill="#CFBB95"/>
<path d="M13.063 6.80903H15.1582V10.9995H13.063V6.80903Z" fill="#CFBB95"/>
<path d="M13.063 13.0947H15.1582V17.2852H13.063V13.0947Z" fill="#CFBB95"/>
<path d="M6.77729 19.3805H8.87253V23.5709H6.77729V19.3805Z" fill="#CFBB95"/>
<path d="M13.063 19.3805H15.1582V23.5709H13.063V19.3805Z" fill="#CFBB95"/>
<path d="M29.8249 13.0947C29.8249 12.5391 29.6042 12.0061 29.2112 11.6132C28.8183 11.2203 28.2854 10.9995 27.7297 10.9995H21.444V2.61855C21.444 2.06286 21.2232 1.52993 20.8303 1.137C20.4373 0.744063 19.9044 0.523315 19.3487 0.523315H2.58682C2.03112 0.523315 1.49819 0.744063 1.10526 1.137C0.712325 1.52993 0.491577 2.06286 0.491577 2.61855V29.8567H29.8249V13.0947ZM2.58682 2.61855H19.3487V27.7614H2.58682V2.61855ZM21.444 27.7614V13.0947H27.7297V27.7614H21.444Z" fill="#CFBB95"/>
</svg>
