<svg width="32" height="33" viewBox="0 0 32 33" fill="none" xmlns="http://www.w3.org/2000/svg">
<path d="M7.61897 7.80891H9.71421V11.9994H7.61897V7.80891Z" fill="#CFBB95"/>
<path d="M7.61897 14.0946H9.71421V18.2851H7.61897V14.0946Z" fill="#CFBB95"/>
<path d="M13.9047 7.80891H15.9999V11.9994H13.9047V7.80891Z" fill="#CFBB95"/>
<path d="M13.9047 14.0946H15.9999V18.2851H13.9047V14.0946Z" fill="#CFBB95"/>
<path d="M7.61897 20.3803H9.71421V24.5708H7.61897V20.3803Z" fill="#CFBB95"/>
<path d="M13.9047 20.3803H15.9999V24.5708H13.9047V20.3803Z" fill="#CFBB95"/>
<path d="M30.6666 14.0946C30.6666 13.5389 30.4458 13.006 30.0529 12.6131C29.66 12.2201 29.127 11.9994 28.5713 11.9994H22.2856V3.61843C22.2856 3.06274 22.0649 2.52981 21.672 2.13687C21.279 1.74394 20.7461 1.52319 20.1904 1.52319H3.42849C2.8728 1.52319 2.33987 1.74394 1.94693 2.13687C1.554 2.52981 1.33325 3.06274 1.33325 3.61843V30.8565H30.6666V14.0946ZM3.42849 3.61843H20.1904V28.7613H3.42849V3.61843ZM22.2856 28.7613V14.0946H28.5713V28.7613H22.2856Z" fill="#CFBB95"/>
</svg>
