<svg width="32" height="33" viewBox="0 0 32 33" fill="none" xmlns="http://www.w3.org/2000/svg">
<g clip-path="url(#clip0_161_2289)">
<path fill-rule="evenodd" clip-rule="evenodd" d="M16.0001 0.189941C16.7365 0.189941 17.3334 0.786895 17.3334 1.52327V30.8566C17.3334 31.593 16.7365 32.1899 16.0001 32.1899C15.2637 32.1899 14.6667 31.593 14.6667 30.8566V1.52327C14.6667 0.786895 15.2637 0.189941 16.0001 0.189941Z" fill="#CFBB95"/>
<path fill-rule="evenodd" clip-rule="evenodd" d="M8.42411 7.28063C9.54933 6.15542 11.0754 5.52327 12.6667 5.52327H22.6667C23.4031 5.52327 24.0001 6.12023 24.0001 6.85661C24.0001 7.59299 23.4031 8.18994 22.6667 8.18994H12.6667C11.7827 8.18994 10.9348 8.54113 10.3097 9.16625C9.6846 9.79137 9.33341 10.6392 9.33341 11.5233C9.33341 12.4073 9.6846 13.2552 10.3097 13.8803C10.9348 14.5054 11.7827 14.8566 12.6667 14.8566H19.3334C20.9247 14.8566 22.4508 15.4887 23.5761 16.614C24.7013 17.7392 25.3334 19.2653 25.3334 20.8566C25.3334 22.4479 24.7013 23.974 23.5761 25.0992C22.4508 26.2245 20.9247 26.8566 19.3334 26.8566H8.00008C7.2637 26.8566 6.66675 26.2597 6.66675 25.5233C6.66675 24.7869 7.2637 24.1899 8.00008 24.1899H19.3334C20.2175 24.1899 21.0653 23.8388 21.6904 23.2136C22.3156 22.5885 22.6667 21.7407 22.6667 20.8566C22.6667 19.9726 22.3156 19.1247 21.6904 18.4996C21.0653 17.8745 20.2175 17.5233 19.3334 17.5233H12.6667C11.0754 17.5233 9.54933 16.8911 8.42411 15.7659C7.29889 14.6407 6.66675 13.1146 6.66675 11.5233C6.66675 9.93198 7.29889 8.40585 8.42411 7.28063Z" fill="#CFBB95"/>
</g>
<defs>
<clipPath id="clip0_161_2289">
<rect width="32" height="32" fill="white" transform="translate(0 0.189941)"/>
</clipPath>
</defs>
</svg>
