<svg width="32" height="33" viewBox="0 0 32 33" fill="none" xmlns="http://www.w3.org/2000/svg">
<path fill-rule="evenodd" clip-rule="evenodd" d="M5.33325 5.52323C4.97963 5.52323 4.64049 5.66371 4.39044 5.91376C4.14039 6.16381 3.99992 6.50295 3.99992 6.85657V25.5232C3.99992 25.8769 4.14039 26.216 4.39044 26.466C4.64049 26.7161 4.97963 26.8566 5.33325 26.8566H26.6666C27.0202 26.8566 27.3593 26.7161 27.6094 26.466C27.8594 26.216 27.9999 25.8769 27.9999 25.5232V10.8566C27.9999 10.5029 27.8594 10.1638 27.6094 9.91376C27.3593 9.66371 27.0202 9.52323 26.6666 9.52323H14.6666C14.2208 9.52323 13.8045 9.30043 13.5572 8.9295L11.2863 5.52323H5.33325ZM2.50482 4.02814C3.25497 3.27799 4.27239 2.85657 5.33325 2.85657H11.9999C12.4457 2.85657 12.862 3.07937 13.1093 3.4503L15.3802 6.85657H26.6666C27.7275 6.85657 28.7449 7.27799 29.495 8.02814C30.2452 8.77829 30.6666 9.7957 30.6666 10.8566V25.5232C30.6666 26.5841 30.2452 27.6015 29.495 28.3517C28.7449 29.1018 27.7275 29.5232 26.6666 29.5232H5.33325C4.27239 29.5232 3.25497 29.1018 2.50482 28.3517C1.75468 27.6015 1.33325 26.5841 1.33325 25.5232V6.85657C1.33325 5.7957 1.75468 4.77829 2.50482 4.02814Z" fill="#CFBB95"/>
<path fill-rule="evenodd" clip-rule="evenodd" d="M15.9999 13.5232C16.7363 13.5232 17.3333 14.1202 17.3333 14.8566V22.8566C17.3333 23.5929 16.7363 24.1899 15.9999 24.1899C15.2635 24.1899 14.6666 23.5929 14.6666 22.8566V14.8566C14.6666 14.1202 15.2635 13.5232 15.9999 13.5232Z" fill="#CFBB95"/>
<path fill-rule="evenodd" clip-rule="evenodd" d="M10.6666 18.8566C10.6666 18.1202 11.2635 17.5232 11.9999 17.5232H19.9999C20.7363 17.5232 21.3333 18.1202 21.3333 18.8566C21.3333 19.5929 20.7363 20.1899 19.9999 20.1899H11.9999C11.2635 20.1899 10.6666 19.5929 10.6666 18.8566Z" fill="#CFBB95"/>
</svg>
