<svg width="32" height="33" viewBox="0 0 32 33" fill="none" xmlns="http://www.w3.org/2000/svg">
<g clip-path="url(#clip0_161_2019)">
<path fill-rule="evenodd" clip-rule="evenodd" d="M6.07554 3.49884C6.07393 3.49388 6.07236 3.4889 6.07084 3.48391L6.07554 3.49884ZM6.81 5.75377L9.33227 13.4963C9.51107 14.0452 10.0228 14.4166 10.6 14.4166H21.4C21.9777 14.4166 22.4896 14.0447 22.6681 13.4953L25.1824 5.75676L27.7053 13.522L29.3377 18.3551L16 28.0484L2.71414 18.3927L6.81 5.75377ZM25.6944 3.84552L25.6993 3.8411C25.6976 3.84259 25.696 3.84405 25.6944 3.84552ZM5.5299 1.86996C5.88094 1.55042 6.33859 1.37329 6.81336 1.37329C7.28923 1.37329 7.7479 1.55124 8.09925 1.87217C8.10852 1.88063 8.11766 1.88922 8.12668 1.89794C8.35411 2.11777 8.52278 2.39102 8.61739 2.69266L11.568 11.75H20.4313L23.3853 2.65797C23.3928 2.63477 23.401 2.61178 23.4098 2.58902C23.5161 2.31419 23.6851 2.06797 23.9032 1.86996C24.2543 1.55042 24.7119 1.37329 25.1867 1.37329C25.6626 1.37329 26.1212 1.55124 26.4726 1.87217C26.4819 1.88063 26.491 1.88922 26.5 1.89794C26.7276 2.11793 26.8964 2.3914 26.9909 2.69331L30.239 12.6905L31.9299 17.6966C31.9326 17.7045 31.9352 17.7125 31.9377 17.7204C31.9409 17.7304 31.9439 17.7404 31.9469 17.7505C32.0944 18.2572 32.0746 18.798 31.8905 19.2925C31.7113 19.7737 31.3859 20.1862 30.9604 20.4723L16.7839 30.7752C16.3165 31.1149 15.6835 31.1149 15.2162 30.7752L1.01616 20.4552L1.01008 20.4508C0.593085 20.1441 0.283773 19.7134 0.126397 19.2203C-0.0304418 18.7289 -0.028374 18.2005 0.132229 17.7104L5.01195 2.65797C5.01949 2.63477 5.02766 2.61178 5.03646 2.58902C5.14275 2.31419 5.31172 2.06797 5.5299 1.86996ZM23.9032 1.86996C23.904 1.86922 23.9049 1.86849 23.9057 1.86775L24.8 2.85664L23.9008 1.87217C23.9016 1.87143 23.9024 1.8707 23.9032 1.86996Z" fill="#CFBB95"/>
</g>
<defs>
<clipPath id="clip0_161_2019">
<rect width="32" height="32" fill="white" transform="translate(0 0.189941)"/>
</clipPath>
</defs>
</svg>
