<svg width="32" height="33" viewBox="0 0 32 33" fill="none" xmlns="http://www.w3.org/2000/svg">
<path fill-rule="evenodd" clip-rule="evenodd" d="M19.2824 3.51435C20.3342 3.07855 21.4615 2.85425 22.6 2.85425C23.7384 2.85425 24.8657 3.07855 25.9175 3.51435C26.969 3.95006 27.9245 4.58866 28.7292 5.39365C29.5342 6.19839 30.1732 7.15426 30.609 8.20582C31.0447 9.25757 31.2691 10.3849 31.2691 11.5233C31.2691 12.6618 31.0447 13.7891 30.609 14.8409C30.1732 15.8925 29.5345 16.848 28.7294 17.6528L16.9428 29.4395C16.4221 29.9602 15.5778 29.9602 15.0571 29.4395L3.27048 17.6528C1.64484 16.0272 0.731567 13.8223 0.731567 11.5233C0.731567 9.22435 1.64484 7.01951 3.27048 5.39387C4.89612 3.76824 7.10096 2.85496 9.39996 2.85496C11.699 2.85496 13.9038 3.76824 15.5294 5.39387L16 5.8644L16.4703 5.39409C17.275 4.58899 18.2308 3.9501 19.2824 3.51435ZM22.6 5.52091C21.8118 5.52091 21.0313 5.6762 20.3032 5.97791C19.5751 6.27961 18.9135 6.72182 18.3563 7.27927L16.9428 8.69282C16.4221 9.21352 15.5778 9.21352 15.0571 8.69282L13.6438 7.27949C12.5183 6.15395 10.9917 5.52163 9.39996 5.52163C7.8082 5.52163 6.28164 6.15395 5.1561 7.27949C4.03056 8.40503 3.39823 9.93159 3.39823 11.5233C3.39823 13.1151 4.03056 14.6417 5.1561 15.7672L16 26.6111L26.8438 15.7672C27.4013 15.21 27.8437 14.5482 28.1454 13.8201C28.4471 13.092 28.6024 12.3115 28.6024 11.5233C28.6024 10.7352 28.4471 9.95474 28.1454 9.2266C27.8437 8.49846 27.4015 7.8369 26.844 7.27971C26.2868 6.72226 25.6248 6.27961 24.8967 5.97791C24.1686 5.6762 23.3881 5.52091 22.6 5.52091Z" fill="#CFBB95"/>
</svg>
