<svg width="32" height="33" viewBox="0 0 32 33" fill="none" xmlns="http://www.w3.org/2000/svg">
<path fill-rule="evenodd" clip-rule="evenodd" d="M15.1814 1.80406C15.6629 1.42957 16.3371 1.42957 16.8185 1.80406L28.8185 11.1374C29.1433 11.39 29.3333 11.7784 29.3333 12.1899V26.8565C29.3333 27.9174 28.9119 28.9348 28.1617 29.685C27.4116 30.4351 26.3942 30.8565 25.3333 30.8565H6.66663C5.60576 30.8565 4.58834 30.4351 3.8382 29.685C3.08805 28.9348 2.66663 27.9174 2.66663 26.8565V12.1899C2.66663 11.7784 2.85659 11.39 3.18137 11.1374L15.1814 1.80406ZM5.33329 12.842V26.8565C5.33329 27.2101 5.47377 27.5493 5.72382 27.7993C5.97387 28.0494 6.313 28.1899 6.66663 28.1899H25.3333C25.6869 28.1899 26.0261 28.0494 26.2761 27.7993C26.5262 27.5493 26.6666 27.2101 26.6666 26.8565V12.842L16 4.54568L5.33329 12.842Z" fill="#CFBB95"/>
<path fill-rule="evenodd" clip-rule="evenodd" d="M10.6666 16.1899C10.6666 15.4535 11.2636 14.8565 12 14.8565H20C20.7363 14.8565 21.3333 15.4535 21.3333 16.1899V29.5232C21.3333 30.2596 20.7363 30.8565 20 30.8565C19.2636 30.8565 18.6666 30.2596 18.6666 29.5232V17.5232H13.3333V29.5232C13.3333 30.2596 12.7363 30.8565 12 30.8565C11.2636 30.8565 10.6666 30.2596 10.6666 29.5232V16.1899Z" fill="#CFBB95"/>
</svg>
