<svg width="32" height="33" viewBox="0 0 32 33" fill="none" xmlns="http://www.w3.org/2000/svg">
<path fill-rule="evenodd" clip-rule="evenodd" d="M16 1.52319C16.7364 1.52319 17.3334 2.12015 17.3334 2.85653V8.18986C17.3334 8.92624 16.7364 9.52319 16 9.52319C15.2637 9.52319 14.6667 8.92624 14.6667 8.18986V2.85653C14.6667 2.12015 15.2637 1.52319 16 1.52319Z" fill="#CFBB95"/>
<path fill-rule="evenodd" clip-rule="evenodd" d="M16 22.8565C16.7364 22.8565 17.3334 23.4535 17.3334 24.1899V29.5232C17.3334 30.2596 16.7364 30.8565 16 30.8565C15.2637 30.8565 14.6667 30.2596 14.6667 29.5232V24.1899C14.6667 23.4535 15.2637 22.8565 16 22.8565Z" fill="#CFBB95"/>
<path fill-rule="evenodd" clip-rule="evenodd" d="M5.63056 5.82038C6.15126 5.29968 6.99548 5.29968 7.51618 5.82038L11.2895 9.59372C11.8102 10.1144 11.8102 10.9586 11.2895 11.4793C10.7688 12 9.9246 12 9.4039 11.4793L5.63056 7.706C5.10987 7.1853 5.10987 6.34108 5.63056 5.82038Z" fill="#CFBB95"/>
<path fill-rule="evenodd" clip-rule="evenodd" d="M20.7106 20.9004C21.2313 20.3797 22.0755 20.3797 22.5962 20.9004L26.3695 24.6737C26.8902 25.1944 26.8902 26.0386 26.3695 26.5593C25.8488 27.08 25.0046 27.08 24.4839 26.5593L20.7106 22.786C20.1899 22.2653 20.1899 21.4211 20.7106 20.9004Z" fill="#CFBB95"/>
<path fill-rule="evenodd" clip-rule="evenodd" d="M1.33337 16.1899C1.33337 15.4535 1.93033 14.8565 2.66671 14.8565H8.00004C8.73642 14.8565 9.33337 15.4535 9.33337 16.1899C9.33337 16.9262 8.73642 17.5232 8.00004 17.5232H2.66671C1.93033 17.5232 1.33337 16.9262 1.33337 16.1899Z" fill="#CFBB95"/>
<path fill-rule="evenodd" clip-rule="evenodd" d="M22.6667 16.1899C22.6667 15.4535 23.2637 14.8565 24 14.8565H29.3334C30.0698 14.8565 30.6667 15.4535 30.6667 16.1899C30.6667 16.9262 30.0698 17.5232 29.3334 17.5232H24C23.2637 17.5232 22.6667 16.9262 22.6667 16.1899Z" fill="#CFBB95"/>
<path fill-rule="evenodd" clip-rule="evenodd" d="M11.2895 20.9004C11.8102 21.4211 11.8102 22.2653 11.2895 22.786L7.51618 26.5593C6.99548 27.08 6.15126 27.08 5.63056 26.5593C5.10987 26.0386 5.10987 25.1944 5.63056 24.6737L9.4039 20.9004C9.9246 20.3797 10.7688 20.3797 11.2895 20.9004Z" fill="#CFBB95"/>
<path fill-rule="evenodd" clip-rule="evenodd" d="M26.3695 5.82038C26.8902 6.34108 26.8902 7.1853 26.3695 7.706L22.5962 11.4793C22.0755 12 21.2313 12 20.7106 11.4793C20.1899 10.9586 20.1899 10.1144 20.7106 9.59372L24.4839 5.82038C25.0046 5.29968 25.8488 5.29968 26.3695 5.82038Z" fill="#CFBB95"/>
</svg>
