<svg width="32" height="33" viewBox="0 0 32 33" fill="none" xmlns="http://www.w3.org/2000/svg">
<path fill-rule="evenodd" clip-rule="evenodd" d="M18.6666 4.1899C18.6666 3.45352 19.2636 2.85657 20 2.85657H25.3333C26.3942 2.85657 27.4116 3.27799 28.1617 4.02814C28.9119 4.77829 29.3333 5.7957 29.3333 6.85657V25.5232C29.3333 26.5841 28.9119 27.6015 28.1617 28.3517C27.4116 29.1018 26.3942 29.5232 25.3333 29.5232H20C19.2636 29.5232 18.6666 28.9263 18.6666 28.1899C18.6666 27.4535 19.2636 26.8566 20 26.8566H25.3333C25.6869 26.8566 26.0261 26.7161 26.2761 26.466C26.5262 26.216 26.6666 25.8769 26.6666 25.5232V6.85657C26.6666 6.50295 26.5262 6.16381 26.2761 5.91376C26.0261 5.66371 25.6869 5.52323 25.3333 5.52323H20C19.2636 5.52323 18.6666 4.92628 18.6666 4.1899Z" fill="#CFBB95"/>
<path fill-rule="evenodd" clip-rule="evenodd" d="M12.3905 8.58043C12.9112 8.05973 13.7554 8.05973 14.2761 8.58043L20.9428 15.2471C21.4635 15.7678 21.4635 16.612 20.9428 17.1327L14.2761 23.7994C13.7554 24.3201 12.9112 24.3201 12.3905 23.7994C11.8698 23.2787 11.8698 22.4345 12.3905 21.9138L18.1143 16.1899L12.3905 10.466C11.8698 9.94534 11.8698 9.10112 12.3905 8.58043Z" fill="#CFBB95"/>
<path fill-rule="evenodd" clip-rule="evenodd" d="M2.66663 16.1899C2.66663 15.4535 3.26358 14.8566 3.99996 14.8566H20C20.7363 14.8566 21.3333 15.4535 21.3333 16.1899C21.3333 16.9263 20.7363 17.5232 20 17.5232H3.99996C3.26358 17.5232 2.66663 16.9263 2.66663 16.1899Z" fill="#CFBB95"/>
</svg>
