<svg width="32" height="33" viewBox="0 0 32 33" fill="none" xmlns="http://www.w3.org/2000/svg">
<path fill-rule="evenodd" clip-rule="evenodd" d="M10.0051 1.69899C10.3922 1.47781 10.8642 1.46471 11.263 1.66408L21.2914 6.67829L30.0051 1.69899C30.4178 1.46318 30.9248 1.46487 31.3359 1.70344C31.747 1.942 32 2.38136 32 2.85665V24.19C32 24.6685 31.7436 25.1102 31.3282 25.3476L21.9949 30.681C21.6078 30.9022 21.1358 30.9153 20.737 30.7159L10.7086 25.7017L1.99485 30.681C1.58218 30.9168 1.07518 30.9151 0.664097 30.6765C0.253011 30.438 0 29.9986 0 29.5233V8.18998C0 7.71151 0.256381 7.26972 0.671815 7.03232L10.0051 1.69899ZM12 23.3659L20 27.3659V9.01403L12 5.01403V23.3659ZM9.33333 5.15422V23.4162L2.66667 27.2257V8.96375L9.33333 5.15422ZM22.6667 8.96375V27.2257L29.3333 23.4162V5.15422L22.6667 8.96375Z" fill="#CFBB95"/>
</svg>
