<svg width="30" height="30" viewBox="0 0 30 30" fill="none" xmlns="http://www.w3.org/2000/svg">
<path fill-rule="evenodd" clip-rule="evenodd" d="M15.0002 3.19001C8.37274 3.19001 3.00016 8.56259 3.00016 15.19C3.00016 21.8174 8.37274 27.19 15.0002 27.19C21.6276 27.19 27.0002 21.8174 27.0002 15.19C27.0002 8.56259 21.6276 3.19001 15.0002 3.19001ZM0.333496 15.19C0.333496 7.08984 6.89999 0.523346 15.0002 0.523346C23.1003 0.523346 29.6668 7.08984 29.6668 15.19C29.6668 23.2902 23.1003 29.8567 15.0002 29.8567C6.89999 29.8567 0.333496 23.2902 0.333496 15.19ZM15.0002 8.52335C15.7365 8.52335 16.3335 9.1203 16.3335 9.85668V13.8567H20.3335C21.0699 13.8567 21.6668 14.4536 21.6668 15.19C21.6668 15.9264 21.0699 16.5233 20.3335 16.5233H16.3335V20.5233C16.3335 21.2597 15.7365 21.8567 15.0002 21.8567C14.2638 21.8567 13.6668 21.2597 13.6668 20.5233V16.5233H9.66683C8.93045 16.5233 8.3335 15.9264 8.3335 15.19C8.3335 14.4536 8.93045 13.8567 9.66683 13.8567H13.6668V9.85668C13.6668 9.1203 14.2638 8.52335 15.0002 8.52335Z" fill="#3263AC"/>
</svg>
