<svg width="406" height="424" viewBox="0 0 406 424" fill="#E4F2FF" xmlns="http://www.w3.org/2000/svg">
<path d="M405.073 205.084L405.535 205.549L405.073 206.011L370.02 241.225L369.553 241.694L369.086 241.224L201.432 72.7456L89.8043 184.924L89.3365 185.393L53.2696 149.148L201.427 0.463409L405.073 205.084ZM55.1254 149.149L89.3365 183.527L201.432 70.8815L369.553 239.828L403.679 205.546L201.426 2.32625L55.1254 149.149Z" fill="#E4F2FF"/>
<path d="M204.567 351.254L316.663 238.609L352.268 274.389L352.729 274.854L204.572 423.538L0.464355 218.452L35.9786 182.776L36.4464 182.307L204.567 351.254ZM2.31878 218.452L204.572 421.674L350.872 274.851L316.661 240.473L205.033 352.65L204.567 353.12L204.1 352.65L36.4451 184.172L2.31878 218.452Z" fill="#E4F2FF"/>
</svg>
