<svg width="32" height="33" viewBox="0 0 32 33" fill="none" xmlns="http://www.w3.org/2000/svg">
<path fill-rule="evenodd" clip-rule="evenodd" d="M15.9999 4.18986C9.3725 4.18986 3.99992 9.56244 3.99992 16.1899C3.99992 22.8173 9.3725 28.1899 15.9999 28.1899C22.6273 28.1899 27.9999 22.8173 27.9999 16.1899C27.9999 9.56244 22.6273 4.18986 15.9999 4.18986ZM1.33325 16.1899C1.33325 8.08968 7.89974 1.52319 15.9999 1.52319C24.1001 1.52319 30.6666 8.08968 30.6666 16.1899C30.6666 24.29 24.1001 30.8565 15.9999 30.8565C7.89974 30.8565 1.33325 24.29 1.33325 16.1899ZM15.9999 9.52319C16.7363 9.52319 17.3333 10.1201 17.3333 10.8565V14.8565H21.3333C22.0696 14.8565 22.6666 15.4535 22.6666 16.1899C22.6666 16.9262 22.0696 17.5232 21.3333 17.5232H17.3333V21.5232C17.3333 22.2596 16.7363 22.8565 15.9999 22.8565C15.2635 22.8565 14.6666 22.2596 14.6666 21.5232V17.5232H10.6666C9.93021 17.5232 9.33325 16.9262 9.33325 16.1899C9.33325 15.4535 9.93021 14.8565 10.6666 14.8565H14.6666V10.8565C14.6666 10.1201 15.2635 9.52319 15.9999 9.52319Z" fill="#CFBB95"/>
</svg>
