<svg width="64" height="46" viewBox="0 0 64 46" fill="none" xmlns="http://www.w3.org/2000/svg">
<path d="M0.167979 45.5443C0.055993 44.5364 0 43.5285 0 42.5207C0 41.5128 0 40.5609 0 39.665C0 31.2661 0.783902 23.987 2.35171 17.8277C4.0315 11.6685 6.4392 5.78924 9.5748 0.189941L30.0682 2.70962C28.0525 8.64489 26.5407 14.1322 25.5328 19.1716C24.6369 24.2109 24.189 29.4743 24.189 34.9616C24.189 36.7534 24.245 38.5452 24.357 40.3369C24.4689 42.0167 24.5809 43.7525 24.6929 45.5443H0.167979ZM34.0997 45.5443C33.9878 44.5364 33.9318 43.5285 33.9318 42.5207C33.9318 41.5128 33.9318 40.5609 33.9318 39.665C33.9318 31.2661 34.7157 23.987 36.2835 17.8277C37.9633 11.6685 40.371 5.78924 43.5066 0.189941L64 2.70962C61.9842 8.64489 60.4724 14.1322 59.4646 19.1716C58.5687 24.2109 58.1207 29.4743 58.1207 34.9616C58.1207 36.7534 58.1767 38.5452 58.2887 40.3369C58.4007 42.0167 58.5127 43.7525 58.6247 45.5443H34.0997Z" fill="#E4F2FF"/>
</svg>
