<svg width="517" height="117" viewBox="0 0 517 117" fill="none" xmlns="http://www.w3.org/2000/svg">
<path d="M54.7355 100.99C54.3355 100.99 54.0355 100.89 53.7355 100.49C51.8355 98.1899 51.0355 94.0899 51.0355 88.9899C51.0355 78.1899 54.5355 62.6899 59.1355 47.5899C53.5356 47.9899 46.9355 48.6899 40.1355 49.5899C27.6355 66.2899 15.0355 82.9899 2.23555 92.3899C1.93555 92.5899 1.73555 92.6899 1.43555 92.6899C0.735546 92.6899 0.135546 91.9899 0.135546 91.2899C0.135546 90.8899 0.235547 90.5899 0.635547 90.2899C12.7355 81.5899 25.9355 65.7899 37.8355 49.9899C26.5355 51.6899 13.8355 54.9899 8.73555 56.9899L8.43555 57.0899C8.13555 57.0899 7.93555 56.7899 7.93555 56.4899C7.93555 56.1899 8.13555 55.8899 8.43555 55.7899C14.8355 53.0899 26.5355 49.6899 38.9355 47.9899C50.7355 32.1899 62.6356 14.5899 76.3355 0.689936C76.6356 0.38994 76.9356 0.289935 77.2355 0.289935C77.9356 0.289935 78.5356 0.78994 78.5356 1.48994L78.4356 1.98994C73.6355 15.8899 68.8356 27.7899 63.1356 45.6899L67.2355 45.5899C70.6356 45.5899 74.4355 45.8899 74.4355 47.8899V48.0899C74.3356 48.8899 73.5355 49.6899 72.7355 49.6899C72.4356 49.6899 72.0356 49.5899 71.7355 49.1899C71.6355 48.9899 71.5356 48.6899 71.5356 48.4899C71.5356 48.1899 71.6355 47.8899 71.7355 47.6899C71.0356 47.2899 69.3355 47.0899 67.4356 47.0899L62.7356 47.2899C57.7355 62.9899 53.5356 79.3899 53.5356 89.7899C53.5356 93.8899 54.2356 97.0899 55.7355 98.8899C55.9355 99.1899 56.0355 99.3899 56.0355 99.6899C56.0355 100.39 55.4355 100.99 54.7355 100.99ZM41.6355 47.4899C48.0355 46.6899 54.6355 46.0899 59.7355 45.7899C64.4355 30.8899 68.8356 18.8899 72.7355 8.38994C62.1355 20.1899 51.3355 34.4899 41.6355 47.4899ZM88.4895 100.99C88.2895 100.99 88.0895 100.89 87.7895 100.79C86.9895 100.19 86.5895 98.8899 86.5895 96.9899C86.5895 90.2899 91.1895 76.0899 97.1895 60.9899C99.0895 55.9899 102.689 46.4899 104.889 41.5899C92.3895 62.8899 75.8895 91.3899 67.9895 92.1899L67.3895 92.2899C64.2895 92.2899 63.0895 89.6899 63.0895 85.3899C63.0895 66.1899 88.5895 13.8899 97.8895 13.8899L98.7895 14.0899C99.1895 14.2899 99.3895 14.6899 99.3895 15.2899C99.3895 22.7899 73.8895 58.8899 71.2895 62.4899C70.0895 65.7899 65.3895 79.1899 65.3895 86.0899C65.3895 88.5899 65.9895 90.1899 67.4895 90.1899H67.8895C75.5895 88.9899 96.9895 52.4899 109.889 29.7899C114.589 21.5899 118.289 14.8899 119.989 12.5899C120.289 12.2899 120.589 12.1899 120.989 12.1899C121.589 12.1899 122.189 12.6899 122.189 13.2899L121.989 13.9899C116.489 22.1899 100.789 58.2899 99.2895 61.7899C93.2895 77.1899 88.4895 91.3899 88.4895 96.6899C88.4895 97.7899 88.6895 98.4899 89.1895 98.7899C89.4895 99.0899 89.6895 99.3899 89.6895 99.7899C89.6895 100.39 89.1895 100.99 88.4895 100.99ZM73.6895 56.2899C84.3895 41.1899 98.2895 18.8899 98.2895 15.9899L98.1895 15.6899L97.8895 15.5899C94.4895 15.5899 81.1895 39.1899 73.6895 56.2899ZM121.994 115.69C121.494 115.69 120.994 115.59 120.594 115.29C119.694 114.79 119.294 113.89 119.294 112.59C119.294 103.59 139.694 78.4899 142.594 75.1899C144.694 69.3899 146.794 62.8899 147.794 59.4899C144.794 63.3899 134.594 75.7899 130.694 76.5899L129.994 76.6899C128.494 76.6899 127.694 75.4899 127.694 73.6899V73.3899C127.794 68.0899 132.994 56.8899 134.794 54.4899C134.994 54.1899 135.394 54.0899 135.694 54.0899C136.594 54.0899 137.594 54.7899 137.594 55.4899C137.594 55.6899 137.494 55.8899 137.294 56.0899C135.994 57.3899 129.394 70.7899 129.394 73.9899C129.394 74.2899 129.394 74.4899 129.494 74.5899C129.594 74.7899 129.794 74.7899 130.094 74.7899C133.594 74.7899 146.894 58.1899 148.694 56.2899C148.894 55.9899 149.194 55.8899 149.494 55.8899C150.094 55.8899 150.694 56.3899 150.694 57.0899C150.694 58.2899 148.994 64.4899 146.594 71.4899C152.094 65.3899 159.394 60.1899 161.794 59.3899L162.194 59.2899C162.794 59.2899 163.394 59.8899 163.394 60.4899C163.394 60.7899 163.294 61.0899 163.094 61.2899C161.094 63.3899 157.394 70.7899 157.394 74.1899C157.394 75.1899 157.594 75.7899 158.294 75.9899H158.694C161.494 75.9899 166.194 69.3899 166.194 64.2899C166.194 62.7899 165.794 61.2899 164.694 60.2899C164.594 60.1899 164.594 60.0899 164.594 59.8899C164.594 59.3899 164.794 58.7899 165.394 58.7899L165.794 58.8899C167.094 59.1899 168.294 59.3899 169.494 59.3899C173.894 59.3899 177.094 57.1899 178.194 56.3899L178.394 56.2899C178.394 56.1899 178.494 56.1899 178.494 56.1899L178.894 56.0899C179.594 56.0899 180.194 56.5899 180.194 57.2899L179.994 57.8899C178.994 59.3899 174.694 70.1899 174.694 73.3899C174.694 73.8899 174.794 74.1899 174.994 74.2899H175.094C176.894 74.2899 187.694 58.9899 188.694 57.1899C188.894 56.7899 189.294 56.6899 189.694 56.6899C190.294 56.6899 190.994 57.0899 190.994 57.5899L190.894 57.8899C189.794 60.4899 185.894 69.7899 185.894 73.9899C185.894 74.6899 185.994 75.1899 186.294 75.5899C186.394 75.7899 186.594 75.7899 186.794 75.7899C189.494 75.7899 199.694 63.9899 201.394 61.8899C201.494 61.6899 201.694 61.5899 201.894 61.5899C202.094 61.5899 202.394 61.7899 202.394 62.0899L202.194 62.4899C198.594 67.1899 190.094 76.9899 186.494 76.9899H186.094C184.594 76.5899 184.094 75.0899 184.094 73.0899C184.094 69.6899 185.694 64.8899 186.194 62.9899C183.794 66.1899 177.594 75.7899 174.994 75.7899H174.894C173.494 75.5899 172.994 74.3899 172.994 72.5899C172.994 68.1899 176.094 60.5899 177.494 57.5899C174.994 59.1899 172.194 60.1899 169.294 60.1899C168.494 60.1899 167.594 60.0899 166.694 59.8899C167.494 60.7899 167.894 62.1899 167.894 63.6899C167.894 69.2899 163.294 77.1899 158.694 77.1899H158.094C156.294 76.9899 155.694 75.5899 155.694 73.6899C155.694 70.1899 157.994 64.8899 159.894 61.7899C156.094 63.6899 151.294 67.8899 145.594 74.4899C143.594 79.9899 130.094 115.69 121.994 115.69ZM121.694 114.59C126.294 114.59 140.294 81.8899 141.494 78.6899C138.694 81.9899 120.594 105.99 120.594 112.89C120.594 113.59 120.794 114.09 121.194 114.39L121.694 114.59ZM218.946 80.1899C218.246 80.1899 217.646 79.6899 217.646 79.0899L217.746 78.6899C219.646 72.8899 224.346 61.4899 227.346 56.5899C227.546 56.1899 227.946 55.9899 228.346 55.9899C228.946 55.9899 229.546 56.4899 229.546 57.1899L229.346 57.7899C227.446 60.9899 223.846 69.4899 222.046 74.0899C223.946 71.4899 233.546 57.2899 238.346 57.2899C238.846 57.2899 239.246 57.4899 239.646 57.7899C240.146 58.2899 240.346 58.8899 240.346 59.7899C240.346 63.1899 236.746 69.2899 236.746 73.0899C236.746 74.3899 237.146 75.3899 238.146 75.9899C238.546 76.1899 239.046 76.3899 239.546 76.3899C241.146 76.3899 243.446 75.2899 245.746 73.5899V73.2899C245.746 66.9899 252.546 58.1899 256.446 58.1899L257.146 58.2899C257.746 58.5899 258.246 59.0899 258.446 59.9899V60.3899C258.446 63.1899 253.246 69.3899 247.746 73.6899V73.9899C247.746 75.6899 248.446 76.9899 250.546 77.3899L251.446 77.4899C257.646 77.4899 265.546 66.0899 268.646 61.8899C268.846 61.6899 269.046 61.5899 269.246 61.5899C269.446 61.5899 269.646 61.7899 269.646 61.9899C269.646 62.0899 269.646 62.2899 269.546 62.3899C267.046 66.4899 258.246 78.8899 251.646 78.8899H251.546C248.146 78.7899 246.446 77.1899 245.946 74.9899C243.446 76.6899 240.846 77.7899 238.846 77.7899C238.146 77.7899 237.446 77.6899 236.846 77.2899C235.046 76.2899 234.446 74.4899 234.446 72.3899C234.446 67.2899 238.346 60.5899 238.346 59.1899L238.246 58.9899C238.146 58.8899 238.046 58.8899 237.846 58.8899C234.746 58.8899 221.046 77.7899 219.846 79.6899C219.546 79.9899 219.246 80.1899 218.946 80.1899ZM247.946 71.9899C252.646 68.1899 256.946 63.0899 256.946 60.8899V60.6899C256.946 60.5899 256.746 60.4899 256.446 60.3899L255.846 60.2899C255.046 60.2899 252.646 62.7899 251.846 63.7899C250.746 65.2899 248.646 68.8899 247.946 71.9899ZM270.792 63.0899C273.592 63.0899 276.592 61.5899 276.592 60.1899C276.492 59.5899 276.292 59.2899 275.592 59.2899C274.292 59.2899 272.292 60.4899 270.592 63.0899H270.792ZM270.592 78.6899C266.592 78.6899 264.992 75.6899 264.992 71.9899C264.992 65.5899 269.292 57.9899 275.392 57.6899C277.092 57.6899 277.892 58.4899 277.992 60.0899C277.992 62.5899 273.492 64.0899 270.592 64.0899H270.092C269.092 65.3899 267.292 69.7899 267.292 73.1899C267.292 75.5899 268.092 77.3899 270.692 77.3899C271.192 77.3899 271.592 77.3899 272.092 77.2899C277.792 76.0899 284.192 67.2899 288.592 61.8899C288.792 61.6899 288.992 61.5899 289.192 61.5899C289.492 61.5899 289.692 61.7899 289.692 62.1899C289.692 62.2899 289.692 62.4899 289.492 62.6899C285.692 67.4899 279.692 76.8899 272.792 78.3899C271.992 78.5899 271.292 78.6899 270.592 78.6899ZM286.216 75.3899C288.716 75.3899 295.316 68.1899 297.116 65.0899C297.216 64.5899 297.316 63.9899 297.316 63.3899C297.316 61.5899 296.816 59.3899 296.116 59.0899L295.616 58.9899C292.216 58.9899 285.216 69.7899 285.216 73.8899V73.9899C285.216 74.9899 285.616 75.3899 286.216 75.3899ZM298.116 82.5899H298.016C295.516 82.4899 294.716 79.7899 294.716 76.6899C294.716 73.6899 295.516 70.2899 296.016 68.5899C293.816 71.0899 289.316 76.8899 285.916 76.8899H285.716C283.916 76.7899 283.116 75.3899 283.116 73.4899C283.116 67.8899 289.516 57.3899 295.516 57.3899C295.916 57.3899 296.316 57.3899 296.716 57.4899C298.016 57.6899 298.416 58.7899 298.616 59.6899C300.516 54.1899 316.216 14.3899 323.516 14.3899C323.816 14.3899 324.116 14.3899 324.416 14.5899C324.816 14.7899 325.016 15.2899 325.016 16.0899C325.016 24.1899 302.616 61.1899 299.316 65.4899C297.916 70.2899 296.916 75.1899 296.916 78.1899C296.916 78.8899 297.016 79.4899 297.116 79.9899C297.316 80.8899 297.816 81.1899 298.616 81.1899C303.416 81.1899 317.716 63.4899 319.416 61.6899L319.816 61.4899C320.116 61.4899 320.216 61.6899 320.216 61.8899C320.216 61.9899 320.216 62.0899 320.116 62.1899C316.816 66.5899 303.716 82.5899 298.116 82.5899ZM300.316 61.9899C302.316 59.0899 323.716 21.9899 323.716 16.6899C323.716 16.3899 323.716 16.1899 323.516 16.0899H323.316C319.016 16.0899 302.516 55.9899 300.316 61.9899ZM357.815 79.7899C357.415 79.7899 356.915 79.6899 356.415 79.3899C355.715 78.9899 355.415 78.2899 355.415 77.4899C355.415 76.6899 355.715 75.7899 356.115 74.9899C358.115 71.1899 364.315 66.9899 364.915 66.6899C365.915 62.7899 366.415 58.7899 366.415 54.7899V53.6899C361.315 60.4899 349.515 76.4899 343.315 76.7899H343.015C340.615 76.7899 339.815 75.0899 339.815 72.4899C339.815 66.8899 344.215 57.2899 345.615 55.1899C345.815 54.7899 346.215 54.5899 346.515 54.5899C347.115 54.5899 347.715 55.0899 347.715 55.6899C347.715 55.8899 347.715 56.1899 347.515 56.3899C346.215 58.3899 341.815 68.7899 341.815 73.2899C341.815 74.1899 342.015 74.8899 342.415 75.1899C342.715 75.3899 343.115 75.5899 343.515 75.5899C348.915 75.5899 363.415 55.7899 366.515 51.5899C366.815 51.1899 367.415 50.9899 367.815 50.9899C368.515 50.9899 369.015 51.2899 369.115 51.9899V53.3899C369.115 57.0899 368.515 61.4899 367.615 65.4899C371.615 63.1899 374.515 62.1899 376.915 61.5899H377.015C377.315 61.5899 377.515 61.8899 377.515 62.0899C377.515 62.2899 377.415 62.4899 377.215 62.5899C373.615 63.6899 370.215 65.0899 367.315 66.9899C365.715 72.6899 361.615 79.7899 357.815 79.7899ZM357.715 78.8899C360.315 78.8899 363.715 70.8899 364.415 68.3899C363.415 69.0899 358.915 72.4899 357.215 75.3899C356.815 76.0899 356.515 76.8899 356.515 77.5899C356.515 77.9899 356.615 78.3899 356.915 78.5899C357.215 78.7899 357.415 78.8899 357.715 78.8899ZM349.415 51.0899C348.915 51.0899 348.615 50.7899 348.615 50.0899C348.615 49.6899 348.715 49.1899 348.915 48.5899C349.215 47.6899 349.715 46.7899 350.615 46.5899H350.815C351.315 46.5899 351.815 46.9899 352.015 47.4899L352.115 48.0899C352.115 49.1899 351.315 49.6899 350.315 50.6899C350.015 50.9899 349.615 51.0899 349.415 51.0899ZM403.432 103.39L402.532 103.29C399.932 102.79 398.932 100.09 398.932 95.9899C398.932 76.5899 422.432 25.2899 425.332 19.1899C426.432 16.7899 426.532 10.5899 429.932 8.98994C430.432 8.68994 431.032 8.58994 431.532 8.58994C432.532 8.58994 433.332 9.08994 433.332 9.98994C433.332 10.2899 433.232 10.6899 432.932 11.1899C428.332 18.0899 400.732 78.8899 400.732 96.7899C400.732 99.5899 401.432 101.39 402.932 101.69H403.332C408.032 101.69 428.532 87.9899 442.032 87.9899C443.832 87.9899 445.532 88.1899 447.032 88.7899C447.332 88.8899 447.532 89.2899 447.532 89.6899C447.532 90.2899 447.132 90.9899 446.632 90.9899C446.432 90.9899 446.332 90.9899 446.132 90.8899C444.732 90.2899 443.132 89.9899 441.432 89.9899C431.532 89.9899 416.632 98.4899 406.432 102.69C405.332 103.09 404.332 103.39 403.432 103.39ZM453.202 87.4899C452.602 87.4899 452.002 87.0899 452.002 86.3899V86.1899C452.002 79.4899 461.002 58.1899 466.302 46.4899C458.002 61.1899 448.102 77.6899 443.102 78.3899L442.302 78.4899C439.502 78.4899 438.302 76.2899 438.302 73.3899C438.302 68.7899 441.202 62.0899 445.902 57.8899L442.702 57.7899C438.902 57.7899 434.902 58.1899 432.002 59.0899C433.502 59.9899 434.102 61.6899 434.102 63.6899C434.102 69.2899 429.102 77.2899 425.302 77.2899C424.602 77.2899 424.002 77.0899 423.502 76.5899C422.602 75.6899 422.202 74.3899 422.202 72.9899C422.202 68.3899 425.802 61.8899 427.902 59.6899C428.002 59.4899 428.202 59.4899 428.402 59.4899C428.902 59.4899 429.502 60.0899 429.502 60.5899L429.302 60.9899C427.202 63.0899 424.002 70.0899 424.002 73.6899C424.002 74.6899 424.202 75.4899 424.802 75.7899L425.102 75.8899C427.202 75.8899 432.702 68.7899 432.702 63.7899C432.702 62.3899 432.302 61.0899 431.202 60.2899C430.602 59.7899 430.302 59.4899 430.302 59.1899C430.302 58.9899 430.302 58.7899 430.502 58.5899C431.602 57.1899 436.502 56.7899 441.502 56.7899C443.402 56.7899 445.302 56.7899 447.102 56.8899C448.502 55.8899 449.802 55.5899 451.002 55.5899C451.502 55.5899 452.102 55.6899 452.602 55.7899C454.502 56.2899 455.302 57.4899 455.302 58.1899C455.302 58.5899 455.102 58.7899 454.802 58.7899L454.702 58.8899C454.702 58.8899 454.602 58.8899 454.602 58.7899L449.502 58.1899C449.002 58.3899 448.502 58.7899 448.002 59.1899C443.802 62.5899 440.402 70.0899 440.402 74.3899C440.402 75.5899 440.702 76.5899 441.302 77.0899C441.602 77.2899 441.902 77.3899 442.202 77.3899C450.102 77.3899 477.402 21.6899 483.002 14.9899C483.302 14.6899 483.602 14.5899 483.902 14.5899C484.602 14.5899 485.402 15.1899 485.402 15.8899L485.202 16.3899C484.502 17.5899 481.802 20.2899 481.302 21.1899C476.502 28.9899 470.502 42.9899 463.802 57.9899C458.502 70.3899 454.302 81.5899 454.302 86.0899V86.3899C454.302 87.0899 453.702 87.4899 453.202 87.4899ZM467.094 74.1899C468.694 74.1899 474.294 69.9899 479.194 63.4899C479.394 62.0899 479.694 60.4899 479.694 59.2899C479.694 58.4899 479.594 57.7899 479.194 57.5899C478.894 57.3899 478.594 57.2899 478.194 57.2899C473.994 57.2899 466.294 68.4899 466.294 72.6899C466.294 73.3899 466.394 73.7899 466.794 74.0899L467.094 74.1899ZM453.294 116.79C452.794 116.79 452.294 116.69 451.794 116.39C450.794 115.79 450.394 114.89 450.394 113.69C450.394 105.29 471.794 83.1899 474.794 80.5899C478.094 73.1899 479.794 68.0899 481.494 63.2899C478.794 66.8899 472.094 75.5899 467.594 75.5899H467.394C464.894 75.4899 463.894 74.0899 463.894 71.9899C463.894 66.4899 470.994 56.3899 476.594 55.4899L477.594 55.3899C480.194 55.3899 481.894 57.0899 481.894 59.5899V60.0899C482.394 59.6899 482.194 59.5899 483.094 58.3899C484.194 56.6899 485.094 56.0899 485.794 56.0899C486.694 56.0899 487.194 57.1899 487.194 57.9899L487.094 58.5899C486.794 59.3899 486.494 58.8899 485.794 60.7899C484.294 64.9899 481.494 70.5899 478.694 77.1899C484.394 71.0899 492.594 62.6899 495.794 61.5899L496.094 61.4899C496.394 61.4899 496.694 61.7899 496.694 62.0899C496.694 62.2899 496.594 62.4899 496.294 62.5899C491.894 64.7899 478.094 79.8899 477.194 80.9899C474.394 87.2899 461.294 116.79 453.294 116.79ZM453.194 115.49C458.294 115.49 471.294 87.7899 472.594 85.1899C469.694 87.1899 451.794 107.89 451.794 113.79C451.794 114.09 451.794 114.49 451.994 114.69C452.294 115.19 452.694 115.49 453.194 115.49ZM497.94 63.0899C500.74 63.0899 503.74 61.5899 503.74 60.1899C503.64 59.5899 503.44 59.2899 502.74 59.2899C501.44 59.2899 499.44 60.4899 497.74 63.0899H497.94ZM497.74 78.6899C493.74 78.6899 492.14 75.6899 492.14 71.9899C492.14 65.5899 496.44 57.9899 502.54 57.6899C504.24 57.6899 505.04 58.4899 505.14 60.0899C505.14 62.5899 500.64 64.0899 497.74 64.0899H497.24C496.24 65.3899 494.44 69.7899 494.44 73.1899C494.44 75.5899 495.24 77.3899 497.84 77.3899C498.34 77.3899 498.74 77.3899 499.24 77.2899C504.94 76.0899 511.34 67.2899 515.74 61.8899C515.94 61.6899 516.14 61.5899 516.34 61.5899C516.64 61.5899 516.84 61.7899 516.84 62.1899C516.84 62.2899 516.84 62.4899 516.64 62.6899C512.84 67.4899 506.84 76.8899 499.94 78.3899C499.14 78.5899 498.44 78.6899 497.74 78.6899Z" fill="#FFFDFA"/>
</svg>
