<svg width="32" height="33" viewBox="0 0 32 33" fill="none" xmlns="http://www.w3.org/2000/svg">
<path fill-rule="evenodd" clip-rule="evenodd" d="M0 4.19002C0 3.45364 0.596954 2.85669 1.33333 2.85669H21.3333C22.0697 2.85669 22.6667 3.45364 22.6667 4.19002V21.5234C22.6667 22.2597 22.0697 22.8567 21.3333 22.8567H1.33333C0.596954 22.8567 0 22.2597 0 21.5234V4.19002ZM2.66667 5.52336V20.19H20V5.52336H2.66667Z" fill="#CFBB95"/>
<path fill-rule="evenodd" clip-rule="evenodd" d="M20 10.8567C20 10.1203 20.597 9.52336 21.3333 9.52336H26.6667C27.0203 9.52336 27.3594 9.66383 27.6095 9.91388L31.6095 13.9139C31.8595 14.1639 32 14.5031 32 14.8567V21.5234C32 22.2597 31.403 22.8567 30.6667 22.8567H21.3333C20.597 22.8567 20 22.2597 20 21.5234V10.8567ZM22.6667 12.19V20.19H29.3333V15.409L26.1144 12.19H22.6667Z" fill="#CFBB95"/>
<path fill-rule="evenodd" clip-rule="evenodd" d="M7.33333 22.8567C6.22876 22.8567 5.33333 23.7521 5.33333 24.8567C5.33333 25.9613 6.22876 26.8567 7.33333 26.8567C8.4379 26.8567 9.33333 25.9613 9.33333 24.8567C9.33333 23.7521 8.4379 22.8567 7.33333 22.8567ZM2.66667 24.8567C2.66667 22.2794 4.756 20.19 7.33333 20.19C9.91066 20.19 12 22.2794 12 24.8567C12 27.434 9.91066 29.5234 7.33333 29.5234C4.756 29.5234 2.66667 27.434 2.66667 24.8567Z" fill="#CFBB95"/>
<path fill-rule="evenodd" clip-rule="evenodd" d="M24.6667 22.8567C23.5621 22.8567 22.6667 23.7521 22.6667 24.8567C22.6667 25.9613 23.5621 26.8567 24.6667 26.8567C25.7712 26.8567 26.6667 25.9613 26.6667 24.8567C26.6667 23.7521 25.7712 22.8567 24.6667 22.8567ZM20 24.8567C20 22.2794 22.0893 20.19 24.6667 20.19C27.244 20.19 29.3333 22.2794 29.3333 24.8567C29.3333 27.434 27.244 29.5234 24.6667 29.5234C22.0893 29.5234 20 27.434 20 24.8567Z" fill="#CFBB95"/>
</svg>
