<svg width="32" height="33" viewBox="0 0 32 33" fill="none" xmlns="http://www.w3.org/2000/svg">
<path fill-rule="evenodd" clip-rule="evenodd" d="M11.3333 5.52336C9.12419 5.52336 7.33333 7.31422 7.33333 9.52336C7.33333 11.7325 9.12419 13.5234 11.3333 13.5234C13.5425 13.5234 15.3333 11.7325 15.3333 9.52336C15.3333 7.31422 13.5425 5.52336 11.3333 5.52336ZM4.66667 9.52336C4.66667 5.84146 7.65143 2.85669 11.3333 2.85669C15.0152 2.85669 18 5.84146 18 9.52336C18 13.2053 15.0152 16.19 11.3333 16.19C7.65143 16.19 4.66667 13.2053 4.66667 9.52336ZM26.6667 9.52336C27.403 9.52336 28 10.1203 28 10.8567V13.5234H30.6667C31.403 13.5234 32 14.1203 32 14.8567C32 15.5931 31.403 16.19 30.6667 16.19H28V18.8567C28 19.5931 27.403 20.19 26.6667 20.19C25.9303 20.19 25.3333 19.5931 25.3333 18.8567V16.19H22.6667C21.9303 16.19 21.3333 15.5931 21.3333 14.8567C21.3333 14.1203 21.9303 13.5234 22.6667 13.5234H25.3333V10.8567C25.3333 10.1203 25.9303 9.52336 26.6667 9.52336ZM1.95262 20.8093C3.20286 19.5591 4.89856 18.8567 6.66667 18.8567H16C17.7681 18.8567 19.4638 19.5591 20.714 20.8093C21.9643 22.0596 22.6667 23.7552 22.6667 25.5234V28.19C22.6667 28.9264 22.0697 29.5234 21.3333 29.5234C20.597 29.5234 20 28.9264 20 28.19V25.5234C20 24.4625 19.5786 23.4451 18.8284 22.6949C18.0783 21.9448 17.0609 21.5234 16 21.5234H6.66667C5.6058 21.5234 4.58839 21.9448 3.83824 22.6949C3.08809 23.4451 2.66667 24.4625 2.66667 25.5234V28.19C2.66667 28.9264 2.06971 29.5234 1.33333 29.5234C0.596954 29.5234 0 28.9264 0 28.19V25.5234C0 23.7552 0.702379 22.0596 1.95262 20.8093Z" fill="#CFBB95"/>
</svg>
