<svg width="33" height="28" viewBox="0 0 33 28" fill="none" xmlns="http://www.w3.org/2000/svg">
<path fill-rule="evenodd" clip-rule="evenodd" d="M11.4915 3.52336C9.2824 3.52336 7.49154 5.31422 7.49154 7.52336C7.49154 9.7325 9.2824 11.5234 11.4915 11.5234C13.7007 11.5234 15.4915 9.7325 15.4915 7.52336C15.4915 5.31422 13.7007 3.52336 11.4915 3.52336ZM4.82487 7.52336C4.82487 3.84146 7.80964 0.856689 11.4915 0.856689C15.1734 0.856689 18.1582 3.84146 18.1582 7.52336C18.1582 11.2053 15.1734 14.19 11.4915 14.19C7.80964 14.19 4.82487 11.2053 4.82487 7.52336ZM31.7677 9.24721C32.2884 9.76791 32.2884 10.6121 31.7677 11.1328L26.4343 16.4662C25.9136 16.9869 25.0694 16.9869 24.5487 16.4662L21.8821 13.7995C21.3614 13.2788 21.3614 12.4346 21.8821 11.9139C22.4028 11.3932 23.247 11.3932 23.7677 11.9139L25.4915 13.6377L29.8821 9.24721C30.4028 8.72651 31.247 8.72651 31.7677 9.24721ZM2.11082 18.8093C3.36107 17.5591 5.05676 16.8567 6.82487 16.8567H16.1582C17.9263 16.8567 19.622 17.5591 20.8722 18.8093C22.1225 20.0596 22.8249 21.7552 22.8249 23.5234V26.19C22.8249 26.9264 22.2279 27.5234 21.4915 27.5234C20.7552 27.5234 20.1582 26.9264 20.1582 26.19V23.5234C20.1582 22.4625 19.7368 21.4451 18.9866 20.6949C18.2365 19.9448 17.2191 19.5234 16.1582 19.5234H6.82487C5.764 19.5234 4.74659 19.9448 3.99644 20.6949C3.2463 21.4451 2.82487 22.4625 2.82487 23.5234V26.19C2.82487 26.9264 2.22792 27.5234 1.49154 27.5234C0.755157 27.5234 0.158203 26.9264 0.158203 26.19V23.5234C0.158203 21.7552 0.860582 20.0596 2.11082 18.8093Z" fill="#CFBB95"/>
</svg>
