<svg width="33" height="33" viewBox="0 0 33 33" fill="none" xmlns="http://www.w3.org/2000/svg">
<g clip-path="url(#clip0_161_2380)">
<path fill-rule="evenodd" clip-rule="evenodd" d="M11.8333 5.52336C9.62419 5.52336 7.83333 7.31422 7.83333 9.52336C7.83333 11.7325 9.62419 13.5234 11.8333 13.5234C14.0425 13.5234 15.8333 11.7325 15.8333 9.52336C15.8333 7.31422 14.0425 5.52336 11.8333 5.52336ZM5.16667 9.52336C5.16667 5.84146 8.15143 2.85669 11.8333 2.85669C15.5152 2.85669 18.5 5.84146 18.5 9.52336C18.5 13.2053 15.5152 16.19 11.8333 16.19C8.15143 16.19 5.16667 13.2053 5.16667 9.52336ZM32.1095 11.2472C32.6302 11.7679 32.6302 12.6121 32.1095 13.1328L26.7761 18.4662C26.2554 18.9869 25.4112 18.9869 24.8905 18.4662L22.2239 15.7995C21.7032 15.2788 21.7032 14.4346 22.2239 13.9139C22.7446 13.3932 23.5888 13.3932 24.1095 13.9139L25.8333 15.6377L30.2239 11.2472C30.7446 10.7265 31.5888 10.7265 32.1095 11.2472ZM2.45262 20.8093C3.70286 19.5591 5.39856 18.8567 7.16667 18.8567H16.5C18.2681 18.8567 19.9638 19.5591 21.214 20.8093C22.4643 22.0596 23.1667 23.7552 23.1667 25.5234V28.19C23.1667 28.9264 22.5697 29.5234 21.8333 29.5234C21.097 29.5234 20.5 28.9264 20.5 28.19V25.5234C20.5 24.4625 20.0786 23.4451 19.3284 22.6949C18.5783 21.9448 17.5609 21.5234 16.5 21.5234H7.16667C6.1058 21.5234 5.08839 21.9448 4.33824 22.6949C3.58809 23.4451 3.16667 24.4625 3.16667 25.5234V28.19C3.16667 28.9264 2.56971 29.5234 1.83333 29.5234C1.09695 29.5234 0.5 28.9264 0.5 28.19V25.5234C0.5 23.7552 1.20238 22.0596 2.45262 20.8093Z" fill="#CFBB95"/>
</g>
<defs>
<clipPath id="clip0_161_2380">
<rect width="32" height="32" fill="white" transform="translate(0.5 0.189941)"/>
</clipPath>
</defs>
</svg>
